G75*
%MOIN*%
%OFA0B0*%
%FSLAX24Y24*%
%IPPOS*%
%LPD*%
%AMOC8*
5,1,8,0,0,1.08239X$1,22.5*
%
%ADD10R,0.0394X0.0433*%
%ADD11R,0.0709X0.0630*%
%ADD12OC8,0.0600*%
%ADD13R,0.0260X0.0866*%
%ADD14C,0.0100*%
%ADD15C,0.0270*%
%ADD16C,0.0160*%
D10*
X001650Y003065D03*
X001650Y003735D03*
D11*
X000750Y003951D03*
X000750Y002849D03*
D12*
X000850Y000900D03*
X001850Y000900D03*
X002850Y000900D03*
X003850Y000900D03*
X004850Y000900D03*
X005850Y000900D03*
X006850Y000900D03*
X007850Y002400D03*
X007850Y003400D03*
X007850Y004400D03*
X006850Y005900D03*
X005850Y005900D03*
X004850Y005900D03*
X003850Y005900D03*
X002850Y005900D03*
X001850Y005900D03*
X000850Y005900D03*
D13*
X002450Y004581D03*
X002950Y004581D03*
X003450Y004581D03*
X003950Y004581D03*
X004450Y004581D03*
X004950Y004581D03*
X005450Y004581D03*
X005450Y002219D03*
X004950Y002219D03*
X004450Y002219D03*
X003950Y002219D03*
X003450Y002219D03*
X002950Y002219D03*
X002450Y002219D03*
D14*
X002950Y002219D02*
X002950Y001700D01*
X002850Y001600D01*
X002550Y001600D01*
X001850Y000900D01*
X002850Y000900D02*
X003450Y001500D01*
X003450Y002219D01*
X003950Y002219D02*
X003950Y001000D01*
X003850Y000900D01*
X004450Y001300D02*
X004850Y000900D01*
X004450Y001300D02*
X004450Y002219D01*
X004950Y002219D02*
X004950Y001700D01*
X005050Y001600D01*
X005150Y001600D01*
X005850Y000900D01*
X006150Y001600D02*
X006850Y000900D01*
X006150Y001600D02*
X005550Y001600D01*
X005450Y001700D01*
X005450Y002219D01*
X006450Y002400D02*
X007850Y002400D01*
X006450Y002400D02*
X005150Y003700D01*
X004750Y003700D01*
X004450Y004000D01*
X004450Y004581D01*
X004450Y005500D01*
X004850Y005900D01*
X003950Y005800D02*
X003850Y005900D01*
X003950Y005800D02*
X003950Y004581D01*
X003450Y004581D02*
X003450Y005300D01*
X002850Y005900D01*
X002550Y005200D02*
X001850Y005900D01*
X002550Y005200D02*
X002850Y005200D01*
X002950Y005100D01*
X002950Y004581D01*
X002450Y004581D02*
X002450Y004600D01*
X002450Y004581D02*
X002450Y003981D01*
X001655Y004025D02*
X001650Y003735D01*
X000750Y003951D02*
X000755Y004365D01*
X004950Y004581D02*
X004950Y005100D01*
X005050Y005200D01*
X005150Y005200D01*
X005850Y005900D01*
X006150Y005200D02*
X006850Y005900D01*
X006150Y005200D02*
X005550Y005200D01*
X005450Y005100D01*
X005450Y004581D01*
D15*
X005750Y003800D03*
X005015Y003065D03*
X002450Y003981D03*
X001655Y004025D03*
X000755Y004365D03*
D16*
X001650Y003065D02*
X001433Y002849D01*
X000750Y002849D01*
X000750Y002000D01*
X000850Y001900D01*
X000850Y000900D01*
X002450Y002219D02*
X002450Y002800D01*
X002715Y003065D01*
X005015Y003065D01*
X005750Y003800D02*
X006350Y004400D01*
X007850Y004400D01*
X002450Y002800D02*
X002185Y003065D01*
X001650Y003065D01*
M02*
