G75*
%MOIN*%
%OFA0B0*%
%FSLAX24Y24*%
%IPPOS*%
%LPD*%
%AMOC8*
5,1,8,0,0,1.08239X$1,22.5*
%
%ADD10R,0.0600X0.0600*%
%ADD11OC8,0.0600*%
%ADD12C,0.0100*%
%ADD13C,0.0230*%
%ADD14C,0.0160*%
D10*
X000850Y000900D03*
X006850Y005900D03*
D11*
X005850Y005900D03*
X004850Y005900D03*
X003850Y005900D03*
X002850Y005900D03*
X001850Y005900D03*
X000850Y005900D03*
X007850Y004400D03*
X007850Y003400D03*
X007850Y002400D03*
X006850Y000900D03*
X005850Y000900D03*
X004850Y000900D03*
X003850Y000900D03*
X002850Y000900D03*
X001850Y000900D03*
D12*
X000733Y000400D02*
X000643Y000490D01*
X001196Y000490D01*
X001260Y000554D01*
X001260Y001246D01*
X001196Y001310D01*
X000504Y001310D01*
X000440Y001246D01*
X000440Y000693D01*
X000350Y000783D01*
X000350Y006017D01*
X000400Y006067D01*
X000400Y005950D01*
X000800Y005950D01*
X000800Y006350D01*
X000683Y006350D01*
X000733Y006400D01*
X008567Y006400D01*
X008950Y006017D01*
X008950Y000783D01*
X008567Y000400D01*
X000733Y000400D01*
X001201Y000496D02*
X001675Y000496D01*
X001680Y000490D02*
X002020Y000490D01*
X002260Y000730D01*
X002260Y001070D01*
X002020Y001310D01*
X001680Y001310D01*
X001440Y001070D01*
X001440Y000730D01*
X001680Y000490D01*
X001576Y000594D02*
X001260Y000594D01*
X001260Y000693D02*
X001478Y000693D01*
X001440Y000791D02*
X001260Y000791D01*
X001260Y000890D02*
X001440Y000890D01*
X001440Y000988D02*
X001260Y000988D01*
X001260Y001087D02*
X001457Y001087D01*
X001555Y001185D02*
X001260Y001185D01*
X001222Y001284D02*
X001654Y001284D01*
X002046Y001284D02*
X002654Y001284D01*
X002680Y001310D02*
X002440Y001070D01*
X002440Y000730D01*
X002680Y000490D01*
X003020Y000490D01*
X003260Y000730D01*
X003260Y001070D01*
X003020Y001310D01*
X002680Y001310D01*
X002555Y001185D02*
X002145Y001185D01*
X002243Y001087D02*
X002457Y001087D01*
X002440Y000988D02*
X002260Y000988D01*
X002260Y000890D02*
X002440Y000890D01*
X002440Y000791D02*
X002260Y000791D01*
X002222Y000693D02*
X002478Y000693D01*
X002576Y000594D02*
X002124Y000594D01*
X002025Y000496D02*
X002675Y000496D01*
X003025Y000496D02*
X003675Y000496D01*
X003680Y000490D02*
X004020Y000490D01*
X004260Y000730D01*
X004260Y001070D01*
X004020Y001310D01*
X003680Y001310D01*
X003440Y001070D01*
X003440Y000730D01*
X003680Y000490D01*
X003576Y000594D02*
X003124Y000594D01*
X003222Y000693D02*
X003478Y000693D01*
X003440Y000791D02*
X003260Y000791D01*
X003260Y000890D02*
X003440Y000890D01*
X003440Y000988D02*
X003260Y000988D01*
X003243Y001087D02*
X003457Y001087D01*
X003555Y001185D02*
X003145Y001185D01*
X003046Y001284D02*
X003654Y001284D01*
X004046Y001284D02*
X004654Y001284D01*
X004680Y001310D02*
X004440Y001070D01*
X004440Y000730D01*
X004680Y000490D01*
X005020Y000490D01*
X005260Y000730D01*
X005260Y001070D01*
X005020Y001310D01*
X004680Y001310D01*
X004555Y001185D02*
X004145Y001185D01*
X004243Y001087D02*
X004457Y001087D01*
X004440Y000988D02*
X004260Y000988D01*
X004260Y000890D02*
X004440Y000890D01*
X004440Y000791D02*
X004260Y000791D01*
X004222Y000693D02*
X004478Y000693D01*
X004576Y000594D02*
X004124Y000594D01*
X004025Y000496D02*
X004675Y000496D01*
X005025Y000496D02*
X005675Y000496D01*
X005680Y000490D02*
X006020Y000490D01*
X006260Y000730D01*
X006260Y001070D01*
X006020Y001310D01*
X005680Y001310D01*
X005440Y001070D01*
X005440Y000730D01*
X005680Y000490D01*
X005576Y000594D02*
X005124Y000594D01*
X005222Y000693D02*
X005478Y000693D01*
X005440Y000791D02*
X005260Y000791D01*
X005260Y000890D02*
X005440Y000890D01*
X005440Y000988D02*
X005260Y000988D01*
X005243Y001087D02*
X005457Y001087D01*
X005555Y001185D02*
X005145Y001185D01*
X005046Y001284D02*
X005654Y001284D01*
X006046Y001284D02*
X006654Y001284D01*
X006680Y001310D02*
X006440Y001070D01*
X006440Y000730D01*
X006680Y000490D01*
X007020Y000490D01*
X007260Y000730D01*
X007260Y001070D01*
X007020Y001310D01*
X006680Y001310D01*
X006555Y001185D02*
X006145Y001185D01*
X006243Y001087D02*
X006457Y001087D01*
X006440Y000988D02*
X006260Y000988D01*
X006260Y000890D02*
X006440Y000890D01*
X006440Y000791D02*
X006260Y000791D01*
X006222Y000693D02*
X006478Y000693D01*
X006576Y000594D02*
X006124Y000594D01*
X006025Y000496D02*
X006675Y000496D01*
X007025Y000496D02*
X008663Y000496D01*
X008761Y000594D02*
X007124Y000594D01*
X007222Y000693D02*
X008860Y000693D01*
X008950Y000791D02*
X007260Y000791D01*
X007260Y000890D02*
X008950Y000890D01*
X008950Y000988D02*
X007260Y000988D01*
X007243Y001087D02*
X008950Y001087D01*
X008950Y001185D02*
X007145Y001185D01*
X007046Y001284D02*
X008950Y001284D01*
X008950Y001382D02*
X000350Y001382D01*
X000350Y001481D02*
X008950Y001481D01*
X008950Y001579D02*
X000350Y001579D01*
X000350Y001678D02*
X008950Y001678D01*
X008950Y001776D02*
X000350Y001776D01*
X000350Y001875D02*
X008950Y001875D01*
X008950Y001973D02*
X000350Y001973D01*
X000350Y002072D02*
X007599Y002072D01*
X007680Y001990D02*
X008020Y001990D01*
X008260Y002230D01*
X008260Y002570D01*
X008020Y002810D01*
X007680Y002810D01*
X007440Y002570D01*
X007440Y002230D01*
X007680Y001990D01*
X007500Y002170D02*
X000350Y002170D01*
X000350Y002269D02*
X007440Y002269D01*
X007440Y002367D02*
X000350Y002367D01*
X000350Y002466D02*
X007440Y002466D01*
X007440Y002564D02*
X000350Y002564D01*
X000350Y002663D02*
X007533Y002663D01*
X007631Y002761D02*
X000350Y002761D01*
X000350Y002860D02*
X004803Y002860D01*
X004822Y002840D02*
X004690Y002972D01*
X004690Y003159D01*
X004822Y003290D01*
X005009Y003290D01*
X005044Y003255D01*
X005437Y003255D01*
X006225Y004044D01*
X006225Y004093D01*
X006357Y004225D01*
X006543Y004225D01*
X006675Y004093D01*
X006675Y003907D01*
X006543Y003775D01*
X006494Y003775D01*
X005594Y002875D01*
X005437Y002875D01*
X005044Y002875D01*
X005009Y002840D01*
X004822Y002840D01*
X004705Y002958D02*
X000350Y002958D01*
X000350Y003057D02*
X004690Y003057D01*
X004690Y003155D02*
X000350Y003155D01*
X000350Y003254D02*
X004785Y003254D01*
X005028Y002860D02*
X008950Y002860D01*
X008950Y002958D02*
X008044Y002958D01*
X008036Y002950D02*
X008300Y003214D01*
X008300Y003350D01*
X007900Y003350D01*
X007900Y003450D01*
X007800Y003450D01*
X007800Y003850D01*
X007664Y003850D01*
X007400Y003586D01*
X007400Y003450D01*
X007800Y003450D01*
X007800Y003350D01*
X007400Y003350D01*
X007400Y003214D01*
X007664Y002950D01*
X007800Y002950D01*
X007800Y003350D01*
X007900Y003350D01*
X007900Y002950D01*
X008036Y002950D01*
X007900Y002958D02*
X007800Y002958D01*
X007800Y003057D02*
X007900Y003057D01*
X007900Y003155D02*
X007800Y003155D01*
X007800Y003254D02*
X007900Y003254D01*
X007900Y003352D02*
X008950Y003352D01*
X008950Y003451D02*
X008300Y003451D01*
X008300Y003450D02*
X008300Y003586D01*
X008036Y003850D01*
X007900Y003850D01*
X007900Y003450D01*
X008300Y003450D01*
X008300Y003549D02*
X008950Y003549D01*
X008950Y003648D02*
X008239Y003648D01*
X008140Y003746D02*
X008950Y003746D01*
X008950Y003845D02*
X008042Y003845D01*
X007900Y003845D02*
X007800Y003845D01*
X007800Y003746D02*
X007900Y003746D01*
X007900Y003648D02*
X007800Y003648D01*
X007800Y003549D02*
X007900Y003549D01*
X007900Y003451D02*
X007800Y003451D01*
X007800Y003352D02*
X006071Y003352D01*
X006169Y003451D02*
X007400Y003451D01*
X007400Y003549D02*
X006268Y003549D01*
X006366Y003648D02*
X007461Y003648D01*
X007560Y003746D02*
X006465Y003746D01*
X006613Y003845D02*
X007658Y003845D01*
X007680Y003990D02*
X008020Y003990D01*
X008260Y004230D01*
X008260Y004570D01*
X008020Y004810D01*
X007680Y004810D01*
X007440Y004570D01*
X007440Y004230D01*
X007680Y003990D01*
X007629Y004042D02*
X006675Y004042D01*
X006628Y004140D02*
X007530Y004140D01*
X007440Y004239D02*
X000350Y004239D01*
X000350Y004337D02*
X007440Y004337D01*
X007440Y004436D02*
X000350Y004436D01*
X000350Y004534D02*
X007440Y004534D01*
X007503Y004633D02*
X000350Y004633D01*
X000350Y004731D02*
X007601Y004731D01*
X008099Y004731D02*
X008950Y004731D01*
X008950Y004633D02*
X008197Y004633D01*
X008260Y004534D02*
X008950Y004534D01*
X008950Y004436D02*
X008260Y004436D01*
X008260Y004337D02*
X008950Y004337D01*
X008950Y004239D02*
X008260Y004239D01*
X008170Y004140D02*
X008950Y004140D01*
X008950Y004042D02*
X008071Y004042D01*
X008950Y003943D02*
X006675Y003943D01*
X006272Y004140D02*
X000350Y004140D01*
X000350Y004042D02*
X006223Y004042D01*
X006124Y003943D02*
X000350Y003943D01*
X000350Y003845D02*
X006026Y003845D01*
X005927Y003746D02*
X000350Y003746D01*
X000350Y003648D02*
X005829Y003648D01*
X005730Y003549D02*
X000350Y003549D01*
X000350Y003451D02*
X005632Y003451D01*
X005533Y003352D02*
X000350Y003352D01*
X000350Y004830D02*
X008950Y004830D01*
X008950Y004928D02*
X000350Y004928D01*
X000350Y005027D02*
X008950Y005027D01*
X008950Y005125D02*
X000350Y005125D01*
X000350Y005224D02*
X008950Y005224D01*
X008950Y005322D02*
X000350Y005322D01*
X000350Y005421D02*
X008950Y005421D01*
X008950Y005519D02*
X007225Y005519D01*
X007196Y005490D02*
X007260Y005554D01*
X007260Y006246D01*
X007196Y006310D01*
X006504Y006310D01*
X006440Y006246D01*
X006440Y005554D01*
X006504Y005490D01*
X007196Y005490D01*
X007260Y005618D02*
X008950Y005618D01*
X008950Y005716D02*
X007260Y005716D01*
X007260Y005815D02*
X008950Y005815D01*
X008950Y005913D02*
X007260Y005913D01*
X007260Y006012D02*
X008950Y006012D01*
X008857Y006110D02*
X007260Y006110D01*
X007260Y006209D02*
X008759Y006209D01*
X008660Y006307D02*
X007199Y006307D01*
X006501Y006307D02*
X006023Y006307D01*
X006020Y006310D02*
X005680Y006310D01*
X005440Y006070D01*
X005440Y005730D01*
X005680Y005490D01*
X006020Y005490D01*
X006260Y005730D01*
X006260Y006070D01*
X006020Y006310D01*
X006121Y006209D02*
X006440Y006209D01*
X006440Y006110D02*
X006220Y006110D01*
X006260Y006012D02*
X006440Y006012D01*
X006440Y005913D02*
X006260Y005913D01*
X006260Y005815D02*
X006440Y005815D01*
X006440Y005716D02*
X006246Y005716D01*
X006147Y005618D02*
X006440Y005618D01*
X006475Y005519D02*
X006049Y005519D01*
X005651Y005519D02*
X005049Y005519D01*
X005020Y005490D02*
X005260Y005730D01*
X005260Y006070D01*
X005020Y006310D01*
X004680Y006310D01*
X004440Y006070D01*
X004440Y005730D01*
X004680Y005490D01*
X005020Y005490D01*
X005147Y005618D02*
X005553Y005618D01*
X005454Y005716D02*
X005246Y005716D01*
X005260Y005815D02*
X005440Y005815D01*
X005440Y005913D02*
X005260Y005913D01*
X005260Y006012D02*
X005440Y006012D01*
X005480Y006110D02*
X005220Y006110D01*
X005121Y006209D02*
X005579Y006209D01*
X005677Y006307D02*
X005023Y006307D01*
X004677Y006307D02*
X004023Y006307D01*
X004020Y006310D02*
X003680Y006310D01*
X003440Y006070D01*
X003440Y005730D01*
X003680Y005490D01*
X004020Y005490D01*
X004260Y005730D01*
X004260Y006070D01*
X004020Y006310D01*
X004121Y006209D02*
X004579Y006209D01*
X004480Y006110D02*
X004220Y006110D01*
X004260Y006012D02*
X004440Y006012D01*
X004440Y005913D02*
X004260Y005913D01*
X004260Y005815D02*
X004440Y005815D01*
X004454Y005716D02*
X004246Y005716D01*
X004147Y005618D02*
X004553Y005618D01*
X004651Y005519D02*
X004049Y005519D01*
X003651Y005519D02*
X003049Y005519D01*
X003020Y005490D02*
X003260Y005730D01*
X003260Y006070D01*
X003020Y006310D01*
X002680Y006310D01*
X002440Y006070D01*
X002440Y005730D01*
X002680Y005490D01*
X003020Y005490D01*
X003147Y005618D02*
X003553Y005618D01*
X003454Y005716D02*
X003246Y005716D01*
X003260Y005815D02*
X003440Y005815D01*
X003440Y005913D02*
X003260Y005913D01*
X003260Y006012D02*
X003440Y006012D01*
X003480Y006110D02*
X003220Y006110D01*
X003121Y006209D02*
X003579Y006209D01*
X003677Y006307D02*
X003023Y006307D01*
X002677Y006307D02*
X002023Y006307D01*
X002020Y006310D02*
X001680Y006310D01*
X001440Y006070D01*
X001440Y005730D01*
X001680Y005490D01*
X002020Y005490D01*
X002260Y005730D01*
X002260Y006070D01*
X002020Y006310D01*
X002121Y006209D02*
X002579Y006209D01*
X002480Y006110D02*
X002220Y006110D01*
X002260Y006012D02*
X002440Y006012D01*
X002440Y005913D02*
X002260Y005913D01*
X002260Y005815D02*
X002440Y005815D01*
X002454Y005716D02*
X002246Y005716D01*
X002147Y005618D02*
X002553Y005618D01*
X002651Y005519D02*
X002049Y005519D01*
X001651Y005519D02*
X001105Y005519D01*
X001036Y005450D02*
X001300Y005714D01*
X001300Y005850D01*
X000900Y005850D01*
X000900Y005950D01*
X001300Y005950D01*
X001300Y006086D01*
X001036Y006350D01*
X000900Y006350D01*
X000900Y005950D01*
X000800Y005950D01*
X000800Y005850D01*
X000900Y005850D01*
X000900Y005450D01*
X001036Y005450D01*
X000900Y005519D02*
X000800Y005519D01*
X000800Y005450D02*
X000800Y005850D01*
X000400Y005850D01*
X000400Y005714D01*
X000664Y005450D01*
X000800Y005450D01*
X000800Y005618D02*
X000900Y005618D01*
X000900Y005716D02*
X000800Y005716D01*
X000800Y005815D02*
X000900Y005815D01*
X000900Y005913D02*
X001440Y005913D01*
X001440Y005815D02*
X001300Y005815D01*
X001300Y005716D02*
X001454Y005716D01*
X001553Y005618D02*
X001204Y005618D01*
X000800Y005913D02*
X000350Y005913D01*
X000350Y005815D02*
X000400Y005815D01*
X000400Y005716D02*
X000350Y005716D01*
X000350Y005618D02*
X000496Y005618D01*
X000595Y005519D02*
X000350Y005519D01*
X000350Y006012D02*
X000400Y006012D01*
X000800Y006012D02*
X000900Y006012D01*
X000900Y006110D02*
X000800Y006110D01*
X000800Y006209D02*
X000900Y006209D01*
X000900Y006307D02*
X000800Y006307D01*
X001079Y006307D02*
X001677Y006307D01*
X001579Y006209D02*
X001178Y006209D01*
X001276Y006110D02*
X001480Y006110D01*
X001440Y006012D02*
X001300Y006012D01*
X005972Y003254D02*
X007400Y003254D01*
X007459Y003155D02*
X005874Y003155D01*
X005775Y003057D02*
X007557Y003057D01*
X007656Y002958D02*
X005677Y002958D01*
X008069Y002761D02*
X008950Y002761D01*
X008950Y002663D02*
X008167Y002663D01*
X008260Y002564D02*
X008950Y002564D01*
X008950Y002466D02*
X008260Y002466D01*
X008260Y002367D02*
X008950Y002367D01*
X008950Y002269D02*
X008260Y002269D01*
X008200Y002170D02*
X008950Y002170D01*
X008950Y002072D02*
X008101Y002072D01*
X008143Y003057D02*
X008950Y003057D01*
X008950Y003155D02*
X008241Y003155D01*
X008300Y003254D02*
X008950Y003254D01*
X000478Y001284D02*
X000350Y001284D01*
X000350Y001185D02*
X000440Y001185D01*
X000440Y001087D02*
X000350Y001087D01*
X000350Y000988D02*
X000440Y000988D01*
X000440Y000890D02*
X000350Y000890D01*
X000350Y000791D02*
X000440Y000791D01*
D13*
X004915Y003065D03*
X006450Y004000D03*
X002450Y003981D03*
X001355Y003675D03*
X000755Y003565D03*
D14*
X004915Y003065D02*
X005515Y003065D01*
X006450Y004000D01*
M02*
