G75*
%MOIN*%
%OFA0B0*%
%FSLAX24Y24*%
%IPPOS*%
%LPD*%
%AMOC8*
5,1,8,0,0,1.08239X$1,22.5*
%
%ADD10C,0.0030*%
%ADD11C,0.0040*%
%ADD12C,0.0060*%
%ADD13C,0.0050*%
D10*
X000520Y001315D02*
X000617Y001412D01*
X000617Y001605D01*
X000718Y001605D02*
X000863Y001605D01*
X000911Y001557D01*
X000911Y001363D01*
X000863Y001315D01*
X000718Y001315D01*
X000718Y001605D01*
X001012Y001605D02*
X001157Y001605D01*
X001206Y001557D01*
X001206Y001363D01*
X001157Y001315D01*
X001012Y001315D01*
X001012Y001605D01*
X000520Y001315D02*
X000423Y001412D01*
X000423Y001605D01*
X001570Y001557D02*
X001570Y001363D01*
X001764Y001557D01*
X001764Y001363D01*
X001715Y001315D01*
X001619Y001315D01*
X001570Y001363D01*
X001570Y001557D02*
X001619Y001605D01*
X001715Y001605D01*
X001764Y001557D01*
X001865Y001605D02*
X001913Y001654D01*
X002010Y001557D01*
X002058Y001605D01*
X002770Y001508D02*
X002867Y001605D01*
X002867Y001315D01*
X002770Y001315D02*
X002964Y001315D01*
X003210Y001557D02*
X003258Y001605D01*
X003210Y001557D02*
X003113Y001654D01*
X003065Y001605D01*
X003770Y001557D02*
X003819Y001605D01*
X003915Y001605D01*
X003964Y001557D01*
X003964Y001508D01*
X003770Y001315D01*
X003964Y001315D01*
X004065Y001363D02*
X004065Y001557D01*
X004113Y001605D01*
X004210Y001605D01*
X004258Y001557D01*
X004258Y001460D01*
X004210Y001412D01*
X004210Y001508D01*
X004113Y001508D01*
X004113Y001412D01*
X004210Y001412D01*
X004258Y001363D02*
X004210Y001315D01*
X004113Y001315D01*
X004065Y001363D01*
X004718Y001363D02*
X004766Y001315D01*
X004863Y001315D01*
X004911Y001363D01*
X004911Y001412D01*
X004863Y001460D01*
X004814Y001460D01*
X004863Y001460D02*
X004911Y001508D01*
X004911Y001557D01*
X004863Y001605D01*
X004766Y001605D01*
X004718Y001557D01*
X005718Y001460D02*
X005911Y001460D01*
X005863Y001315D02*
X005863Y001605D01*
X005718Y001460D01*
X006723Y001460D02*
X006820Y001508D01*
X006868Y001508D01*
X006917Y001460D01*
X006917Y001363D01*
X006868Y001315D01*
X006771Y001315D01*
X006723Y001363D01*
X006723Y001460D02*
X006723Y001605D01*
X006917Y001605D01*
X007018Y001557D02*
X007066Y001605D01*
X007163Y001605D01*
X007211Y001557D01*
X007211Y001460D01*
X007163Y001412D01*
X007163Y001508D01*
X007066Y001508D01*
X007066Y001412D01*
X007163Y001412D01*
X007211Y001363D02*
X007163Y001315D01*
X007066Y001315D01*
X007018Y001363D01*
X007018Y001557D01*
X007312Y001605D02*
X007361Y001654D01*
X007457Y001557D01*
X007506Y001605D01*
X007565Y000705D02*
X007710Y000705D01*
X007758Y000657D01*
X007758Y000560D01*
X007710Y000512D01*
X007565Y000512D01*
X007662Y000512D02*
X007758Y000415D01*
X007860Y000463D02*
X008053Y000657D01*
X008053Y000463D01*
X008005Y000415D01*
X007908Y000415D01*
X007860Y000463D01*
X007860Y000657D01*
X007908Y000705D01*
X008005Y000705D01*
X008053Y000657D01*
X008154Y000463D02*
X008203Y000463D01*
X008203Y000415D01*
X008154Y000415D01*
X008154Y000463D01*
X008302Y000415D02*
X008495Y000608D01*
X008495Y000657D01*
X008447Y000705D01*
X008350Y000705D01*
X008302Y000657D01*
X008302Y000415D02*
X008495Y000415D01*
X007565Y000415D02*
X007565Y000705D01*
X006995Y000508D02*
X006850Y000315D01*
X006705Y000508D01*
X006495Y000463D02*
X006447Y000415D01*
X006253Y000608D01*
X006447Y000608D01*
X006495Y000560D01*
X006495Y000463D01*
X006447Y000415D02*
X006253Y000415D01*
X006205Y000463D01*
X006205Y000560D01*
X006253Y000608D01*
X005995Y000315D02*
X005850Y000508D01*
X005705Y000315D01*
X005787Y005146D02*
X005690Y005243D01*
X005642Y005195D01*
X005787Y005146D02*
X005835Y005195D01*
X005936Y005195D02*
X005936Y005243D01*
X006130Y005437D01*
X006130Y005485D01*
X006130Y005195D02*
X005936Y005195D01*
X005375Y005195D02*
X005375Y005437D01*
X005327Y005485D01*
X005230Y005485D01*
X005182Y005437D01*
X005182Y005195D01*
X005081Y005195D02*
X004935Y005195D01*
X004887Y005243D01*
X004887Y005340D01*
X004935Y005388D01*
X005081Y005388D01*
X005081Y005485D02*
X005081Y005195D01*
X004786Y005195D02*
X004641Y005195D01*
X004592Y005243D01*
X004592Y005437D01*
X004641Y005485D01*
X004786Y005485D01*
X004786Y005195D01*
X004491Y005195D02*
X004394Y005195D01*
X004443Y005195D02*
X004443Y005485D01*
X004491Y005485D02*
X004394Y005485D01*
X003982Y005437D02*
X003982Y005388D01*
X003934Y005340D01*
X003837Y005340D01*
X003789Y005388D01*
X003789Y005437D01*
X003837Y005485D01*
X003934Y005485D01*
X003982Y005437D01*
X003934Y005340D02*
X003982Y005292D01*
X003982Y005243D01*
X003934Y005195D01*
X003837Y005195D01*
X003789Y005243D01*
X003789Y005292D01*
X003837Y005340D01*
X003130Y005292D02*
X003081Y005340D01*
X002936Y005340D01*
X002936Y005437D02*
X002936Y005243D01*
X002985Y005195D01*
X003081Y005195D01*
X003130Y005243D01*
X003130Y005292D01*
X003130Y005437D02*
X003081Y005485D01*
X002985Y005485D01*
X002936Y005437D01*
X002835Y005437D02*
X002787Y005485D01*
X002690Y005485D01*
X002642Y005437D01*
X002690Y005388D02*
X002690Y005292D01*
X002787Y005292D01*
X002787Y005388D01*
X002690Y005388D01*
X002642Y005340D01*
X002642Y005243D01*
X002690Y005195D01*
X002787Y005195D01*
X002835Y005243D01*
X002835Y005437D01*
X002277Y005485D02*
X002083Y005485D01*
X002180Y005485D02*
X002180Y005195D01*
X002277Y005292D01*
X001982Y005243D02*
X001934Y005195D01*
X001837Y005195D01*
X001789Y005243D01*
X001982Y005437D01*
X001934Y005485D01*
X001837Y005485D01*
X001789Y005437D01*
X001789Y005243D01*
X001688Y005195D02*
X001639Y005146D01*
X001543Y005243D01*
X001494Y005195D01*
X001277Y005243D02*
X001277Y005437D01*
X001229Y005485D01*
X001132Y005485D01*
X001083Y005437D01*
X001083Y005340D01*
X001180Y005340D01*
X001083Y005243D02*
X001132Y005195D01*
X001229Y005195D01*
X001277Y005243D01*
X000982Y005195D02*
X000982Y005485D01*
X000789Y005485D02*
X000789Y005195D01*
X000688Y005195D02*
X000543Y005195D01*
X000494Y005243D01*
X000494Y005437D01*
X000543Y005485D01*
X000688Y005485D01*
X000688Y005195D01*
X000982Y005195D02*
X000789Y005485D01*
X001982Y005437D02*
X001982Y005243D01*
X002850Y006315D02*
X002995Y006508D01*
X003205Y006412D02*
X003495Y006412D01*
X003495Y006508D02*
X003495Y006315D01*
X003302Y006315D02*
X003205Y006412D01*
X002850Y006315D02*
X002705Y006508D01*
X003705Y006315D02*
X003850Y006508D01*
X003995Y006315D01*
X005705Y006363D02*
X005753Y006315D01*
X005947Y006315D01*
X005995Y006363D01*
X005995Y006460D01*
X005947Y006508D01*
X005753Y006508D02*
X005705Y006460D01*
X005705Y006363D01*
X006705Y006315D02*
X006705Y006460D01*
X006753Y006508D01*
X006947Y006508D01*
X006995Y006460D01*
X006995Y006315D01*
X006705Y006315D01*
X006985Y005485D02*
X006936Y005437D01*
X006936Y005388D01*
X006985Y005340D01*
X007130Y005340D01*
X007130Y005437D01*
X007081Y005485D01*
X006985Y005485D01*
X007130Y005340D02*
X007033Y005243D01*
X006936Y005195D01*
X006835Y005195D02*
X006787Y005146D01*
X006690Y005243D01*
X006642Y005195D01*
D11*
X006633Y004580D02*
X006814Y004580D01*
X006874Y004520D01*
X006874Y004280D01*
X006814Y004220D01*
X006633Y004220D01*
X006633Y004580D01*
X006505Y004580D02*
X006505Y004340D01*
X006385Y004220D01*
X006265Y004340D01*
X006265Y004580D01*
X007002Y004580D02*
X007002Y004220D01*
X007182Y004220D01*
X007242Y004280D01*
X007242Y004520D01*
X007182Y004580D01*
X007002Y004580D01*
X007002Y003630D02*
X007182Y003630D01*
X007242Y003570D01*
X007242Y003330D01*
X007182Y003270D01*
X007002Y003270D01*
X007002Y003630D01*
X006874Y003630D02*
X006874Y003270D01*
X006633Y003630D01*
X006633Y003270D01*
X006505Y003330D02*
X006505Y003450D01*
X006385Y003450D01*
X006265Y003330D02*
X006325Y003270D01*
X006445Y003270D01*
X006505Y003330D01*
X006265Y003330D02*
X006265Y003570D01*
X006325Y003630D01*
X006445Y003630D01*
X006505Y003570D01*
X008510Y003357D02*
X008570Y003357D01*
X008690Y003357D02*
X008690Y003297D01*
X008690Y003357D02*
X008930Y003357D01*
X008930Y003297D02*
X008930Y003417D01*
X008930Y003543D02*
X008690Y003543D01*
X008690Y003723D01*
X008750Y003783D01*
X008930Y003783D01*
X008870Y003911D02*
X008690Y003911D01*
X008870Y003911D02*
X008930Y003971D01*
X008930Y004151D01*
X008990Y004151D02*
X009050Y004091D01*
X009050Y004031D01*
X008990Y004151D02*
X008690Y004151D01*
X008690Y004279D02*
X008570Y004400D01*
X008930Y004400D01*
X008930Y004520D02*
X008930Y004279D01*
X008870Y004648D02*
X008750Y004648D01*
X008750Y004828D01*
X008810Y004888D01*
X008870Y004888D01*
X008930Y004828D01*
X008930Y004708D01*
X008870Y004648D01*
X008750Y004648D02*
X008630Y004768D01*
X008570Y004888D01*
X008630Y005016D02*
X008570Y005076D01*
X008570Y005196D01*
X008630Y005256D01*
X008690Y005256D01*
X008930Y005016D01*
X008930Y005256D01*
X008750Y005384D02*
X008750Y005625D01*
X008930Y005564D02*
X008570Y005564D01*
X008750Y005384D01*
X008570Y003169D02*
X008570Y002929D01*
X008570Y003049D02*
X008930Y003049D01*
X008810Y002801D02*
X008810Y002561D01*
X008870Y002561D02*
X008750Y002561D01*
X008690Y002621D01*
X008690Y002741D01*
X008750Y002801D01*
X008810Y002801D01*
X008930Y002741D02*
X008930Y002621D01*
X008870Y002561D01*
X008810Y002432D02*
X008810Y002192D01*
X008870Y002192D02*
X008750Y002192D01*
X008690Y002252D01*
X008690Y002372D01*
X008750Y002432D01*
X008810Y002432D01*
X008930Y002372D02*
X008930Y002252D01*
X008870Y002192D01*
X008930Y002064D02*
X008930Y001824D01*
X008870Y001824D01*
X008630Y002064D01*
X008570Y002064D01*
X008570Y001824D01*
X008750Y001696D02*
X008690Y001636D01*
X008690Y001516D01*
X008750Y001456D01*
X008870Y001456D01*
X008930Y001516D01*
X008930Y001636D01*
X008810Y001696D02*
X008810Y001456D01*
X008810Y001328D02*
X008810Y001087D01*
X008870Y001087D02*
X008750Y001087D01*
X008690Y001147D01*
X008690Y001267D01*
X008750Y001328D01*
X008810Y001328D01*
X008930Y001267D02*
X008930Y001147D01*
X008870Y001087D01*
X008810Y001696D02*
X008750Y001696D01*
D12*
X008350Y002150D02*
X008100Y001900D01*
X007600Y001900D01*
X007350Y002150D01*
X007350Y002650D01*
X007600Y002900D01*
X007350Y003150D01*
X007350Y003650D01*
X007600Y003900D01*
X007350Y004150D01*
X007350Y004650D01*
X007600Y004900D01*
X008100Y004900D01*
X008350Y004650D01*
X008350Y004150D01*
X008100Y003900D01*
X008350Y003650D01*
X008350Y003150D01*
X008100Y002900D01*
X008350Y002650D01*
X008350Y002150D01*
X008100Y002900D02*
X007600Y002900D01*
X007600Y003900D02*
X008100Y003900D01*
X005763Y004168D02*
X005763Y002632D01*
X005762Y002615D01*
X005757Y002598D01*
X005750Y002583D01*
X005740Y002569D01*
X005728Y002557D01*
X005714Y002547D01*
X005699Y002540D01*
X005682Y002535D01*
X005665Y002534D01*
X005763Y004168D02*
X005762Y004185D01*
X005757Y004202D01*
X005750Y004217D01*
X005740Y004231D01*
X005728Y004243D01*
X005714Y004253D01*
X005699Y004260D01*
X005682Y004265D01*
X005665Y004266D01*
X002235Y004266D02*
X002218Y004265D01*
X002201Y004260D01*
X002186Y004253D01*
X002172Y004243D01*
X002160Y004231D01*
X002150Y004217D01*
X002143Y004202D01*
X002138Y004185D01*
X002137Y004168D01*
X002137Y002632D01*
X002138Y002615D01*
X002143Y002598D01*
X002150Y002583D01*
X002160Y002569D01*
X002172Y002557D01*
X002186Y002547D01*
X002201Y002540D01*
X002218Y002535D01*
X002235Y002534D01*
D13*
X002216Y002888D02*
X005684Y002888D01*
X002570Y002967D02*
X002452Y003164D01*
X002334Y002967D01*
X002570Y002967D01*
M02*
