G75*
%MOIN*%
%OFA0B0*%
%FSLAX24Y24*%
%IPPOS*%
%LPD*%
%AMOC8*
5,1,8,0,0,1.08239X$1,22.5*
%
%ADD10C,0.0030*%
%ADD11C,0.0040*%
%ADD12C,0.0060*%
%ADD13C,0.0110*%
%ADD14C,0.0100*%
%ADD15C,0.0050*%
D10*
X002465Y001768D02*
X002417Y001817D01*
X002417Y002058D01*
X002562Y002058D01*
X002610Y002010D01*
X002610Y001913D01*
X002562Y001865D01*
X002417Y001865D01*
X002316Y001865D02*
X002316Y002155D01*
X002267Y002058D02*
X002171Y002058D01*
X002122Y002010D01*
X002122Y001865D01*
X001973Y001913D02*
X001924Y001865D01*
X001973Y001913D02*
X001973Y002107D01*
X002021Y002058D02*
X001924Y002058D01*
X001825Y002010D02*
X001776Y002058D01*
X001631Y002058D01*
X001680Y001962D02*
X001776Y001962D01*
X001825Y002010D01*
X001680Y001962D02*
X001631Y001913D01*
X001680Y001865D01*
X001825Y001865D01*
X001530Y001865D02*
X001482Y001865D01*
X001482Y001913D01*
X001530Y001913D01*
X001530Y001865D01*
X001383Y001913D02*
X001334Y001865D01*
X001189Y001865D01*
X001088Y001913D02*
X001040Y001865D01*
X000943Y001865D01*
X000895Y001913D01*
X000895Y002010D01*
X000943Y002058D01*
X001040Y002058D01*
X001088Y002010D01*
X001088Y001913D01*
X001189Y002058D02*
X001334Y002058D01*
X001383Y002010D01*
X001383Y001913D01*
X000793Y001865D02*
X000793Y002058D01*
X000745Y002058D01*
X000697Y002010D01*
X000648Y002058D01*
X000600Y002010D01*
X000600Y001865D01*
X000697Y001865D02*
X000697Y002010D01*
X002267Y002058D02*
X002316Y002010D01*
X002712Y002058D02*
X002712Y001865D01*
X002857Y001865D01*
X002905Y001913D01*
X002905Y002058D01*
X003006Y002010D02*
X003055Y002058D01*
X003151Y002058D01*
X003200Y002010D01*
X003200Y001913D01*
X003151Y001865D01*
X003055Y001865D01*
X003006Y001913D01*
X003006Y002010D01*
X003301Y002010D02*
X003301Y001865D01*
X003494Y001865D02*
X003494Y002155D01*
X003446Y002058D02*
X003349Y002058D01*
X003301Y002010D01*
X003446Y002058D02*
X003494Y002010D01*
X003594Y002058D02*
X003691Y002058D01*
X003642Y002107D02*
X003642Y001913D01*
X003594Y001865D01*
X003792Y002010D02*
X003985Y002010D01*
X004085Y002058D02*
X004182Y002058D01*
X004134Y002107D02*
X004134Y001913D01*
X004085Y001865D01*
X004283Y001913D02*
X004283Y002010D01*
X004331Y002058D01*
X004428Y002058D01*
X004477Y002010D01*
X004477Y001913D01*
X004428Y001865D01*
X004331Y001865D01*
X004283Y001913D01*
X004578Y001913D02*
X004626Y001865D01*
X004771Y001865D01*
X004771Y002155D01*
X004771Y002058D02*
X004626Y002058D01*
X004578Y002010D01*
X004578Y001913D01*
X002514Y001768D02*
X002465Y001768D01*
D11*
X002510Y002270D02*
X002510Y002450D01*
X002390Y002570D01*
X002390Y002630D01*
X002510Y002450D02*
X002630Y002570D01*
X002630Y002630D01*
X002758Y002570D02*
X002758Y002510D01*
X002818Y002450D01*
X002998Y002450D01*
X003126Y002450D02*
X003367Y002450D01*
X003495Y002330D02*
X003555Y002270D01*
X003675Y002270D01*
X003735Y002330D01*
X003735Y002570D01*
X003675Y002630D01*
X003555Y002630D01*
X003495Y002570D01*
X003863Y002570D02*
X003923Y002630D01*
X004043Y002630D01*
X004103Y002570D01*
X004103Y002330D01*
X004043Y002270D01*
X003923Y002270D01*
X003863Y002330D01*
X002998Y002270D02*
X002818Y002270D01*
X002758Y002330D01*
X002758Y002390D01*
X002818Y002450D01*
X002758Y002570D02*
X002818Y002630D01*
X002998Y002630D01*
X002998Y002270D01*
X002262Y002450D02*
X002021Y002450D01*
X001893Y002510D02*
X001833Y002450D01*
X001713Y002450D01*
X001653Y002390D01*
X001653Y002330D01*
X001713Y002270D01*
X001833Y002270D01*
X001893Y002330D01*
X001893Y002510D02*
X001893Y002570D01*
X001833Y002630D01*
X001713Y002630D01*
X001653Y002570D01*
X001525Y002510D02*
X001405Y002630D01*
X001285Y002510D01*
X001285Y002270D01*
X001525Y002270D02*
X001525Y002510D01*
X001525Y002450D02*
X001285Y002450D01*
D12*
X000350Y000600D02*
X000600Y000350D01*
X001100Y000350D01*
X001350Y000600D01*
X001600Y000350D01*
X002100Y000350D01*
X002350Y000600D01*
X002350Y001100D01*
X002100Y001350D01*
X001600Y001350D01*
X001350Y001100D01*
X001100Y001350D01*
X000600Y001350D01*
X000350Y001100D01*
X000350Y000600D01*
X001350Y000600D02*
X001350Y001100D01*
X002350Y001100D02*
X002600Y001350D01*
X003100Y001350D01*
X003350Y001100D01*
X003600Y001350D01*
X004100Y001350D01*
X004350Y001100D01*
X004600Y001350D01*
X005100Y001350D01*
X005350Y001100D01*
X005350Y000600D01*
X005100Y000350D01*
X004600Y000350D01*
X004350Y000600D01*
X004350Y001100D01*
X004350Y000600D02*
X004100Y000350D01*
X003600Y000350D01*
X003350Y000600D01*
X003350Y001100D01*
X003350Y000600D02*
X003100Y000350D01*
X002600Y000350D01*
X002350Y000600D01*
X005350Y000600D02*
X005600Y000350D01*
X006100Y000350D01*
X006350Y000600D01*
X006600Y000350D01*
X007100Y000350D01*
X007350Y000600D01*
X007350Y001100D01*
X007100Y001350D01*
X006600Y001350D01*
X006350Y001100D01*
X006100Y001350D01*
X005600Y001350D01*
X005350Y001100D01*
X006350Y001100D02*
X006350Y000600D01*
X006100Y005350D02*
X005600Y005350D01*
X005350Y005600D01*
X005350Y006100D01*
X005600Y006350D01*
X006100Y006350D01*
X006350Y006100D01*
X006350Y005600D01*
X006100Y005350D01*
X006350Y005600D02*
X006600Y005350D01*
X007100Y005350D01*
X007350Y005600D01*
X007350Y006100D01*
X007100Y006350D01*
X006600Y006350D01*
X006350Y006100D01*
X005350Y006100D02*
X005100Y006350D01*
X004600Y006350D01*
X004350Y006100D01*
X004100Y006350D01*
X003600Y006350D01*
X003350Y006100D01*
X003100Y006350D01*
X002600Y006350D01*
X002350Y006100D01*
X002350Y005600D01*
X002600Y005350D01*
X003100Y005350D01*
X003350Y005600D01*
X003600Y005350D01*
X004100Y005350D01*
X004350Y005600D01*
X004600Y005350D01*
X005100Y005350D01*
X005350Y005600D01*
X004350Y005600D02*
X004350Y006100D01*
X003350Y006100D02*
X003350Y005600D01*
X002350Y005600D02*
X002100Y005350D01*
X001600Y005350D01*
X001350Y005600D01*
X001100Y005350D01*
X000600Y005350D01*
X000350Y005600D01*
X000350Y006100D01*
X000600Y006350D01*
X001100Y006350D01*
X001350Y006100D01*
X001350Y005600D01*
X001350Y006100D02*
X001600Y006350D01*
X002100Y006350D01*
X002350Y006100D01*
D13*
X002620Y003550D02*
X002609Y003575D01*
X002595Y003598D01*
X002577Y003619D01*
X002557Y003637D01*
X002535Y003653D01*
X002511Y003665D01*
X002485Y003673D01*
X002458Y003678D01*
X002431Y003679D01*
X002404Y003676D01*
X002378Y003670D01*
X002352Y003660D01*
X002329Y003646D01*
X002307Y003629D01*
X002289Y003610D01*
X002273Y003588D01*
X002260Y003564D01*
X002251Y003539D01*
X002245Y003512D01*
X002243Y003485D01*
X002245Y003458D01*
X002251Y003431D01*
X002260Y003406D01*
X002273Y003382D01*
X002289Y003360D01*
X002307Y003341D01*
X002329Y003324D01*
X002352Y003310D01*
X002378Y003300D01*
X002404Y003294D01*
X002431Y003291D01*
X002458Y003292D01*
X002485Y003297D01*
X002511Y003305D01*
X002535Y003317D01*
X002557Y003333D01*
X002577Y003351D01*
X002595Y003372D01*
X002609Y003395D01*
X002620Y003420D01*
X002635Y003463D02*
X002637Y003486D01*
X002643Y003508D01*
X002652Y003530D01*
X002665Y003549D01*
X002680Y003566D01*
X002698Y003580D01*
X002719Y003591D01*
X002741Y003599D01*
X002763Y003603D01*
X002787Y003603D01*
X002809Y003599D01*
X002831Y003591D01*
X002852Y003580D01*
X002870Y003566D01*
X002885Y003549D01*
X002898Y003530D01*
X002907Y003508D01*
X002913Y003486D01*
X002915Y003463D01*
X002913Y003440D01*
X002907Y003418D01*
X002898Y003396D01*
X002885Y003377D01*
X002870Y003360D01*
X002852Y003346D01*
X002831Y003335D01*
X002809Y003327D01*
X002787Y003323D01*
X002763Y003323D01*
X002741Y003327D01*
X002719Y003335D01*
X002698Y003346D01*
X002680Y003360D01*
X002665Y003377D01*
X002652Y003396D01*
X002643Y003418D01*
X002637Y003440D01*
X002635Y003463D01*
X002630Y003420D02*
X002641Y003395D01*
X002655Y003372D01*
X002673Y003351D01*
X002693Y003333D01*
X002715Y003317D01*
X002739Y003305D01*
X002765Y003297D01*
X002792Y003292D01*
X002819Y003291D01*
X002846Y003294D01*
X002872Y003300D01*
X002898Y003310D01*
X002921Y003324D01*
X002943Y003341D01*
X002961Y003360D01*
X002977Y003382D01*
X002990Y003406D01*
X002999Y003431D01*
X003005Y003458D01*
X003007Y003485D01*
X003005Y003512D01*
X002999Y003539D01*
X002990Y003564D01*
X002977Y003588D01*
X002961Y003610D01*
X002943Y003629D01*
X002921Y003646D01*
X002898Y003660D01*
X002872Y003670D01*
X002846Y003676D01*
X002819Y003679D01*
X002792Y003678D01*
X002765Y003673D01*
X002739Y003665D01*
X002715Y003653D01*
X002693Y003637D01*
X002673Y003619D01*
X002655Y003598D01*
X002641Y003575D01*
X002630Y003550D01*
X002345Y003463D02*
X002347Y003486D01*
X002353Y003508D01*
X002362Y003530D01*
X002375Y003549D01*
X002390Y003566D01*
X002408Y003580D01*
X002429Y003591D01*
X002451Y003599D01*
X002473Y003603D01*
X002497Y003603D01*
X002519Y003599D01*
X002541Y003591D01*
X002562Y003580D01*
X002580Y003566D01*
X002595Y003549D01*
X002608Y003530D01*
X002617Y003508D01*
X002623Y003486D01*
X002625Y003463D01*
X002623Y003440D01*
X002617Y003418D01*
X002608Y003396D01*
X002595Y003377D01*
X002580Y003360D01*
X002562Y003346D01*
X002541Y003335D01*
X002519Y003327D01*
X002497Y003323D01*
X002473Y003323D01*
X002451Y003327D01*
X002429Y003335D01*
X002408Y003346D01*
X002390Y003360D01*
X002375Y003377D01*
X002362Y003396D01*
X002353Y003418D01*
X002347Y003440D01*
X002345Y003463D01*
D14*
X002039Y003499D02*
X001831Y003499D01*
X001823Y003527D02*
X001529Y003578D01*
X001529Y003892D01*
X001823Y003923D01*
X001858Y004038D01*
X001911Y004145D01*
X001735Y004390D01*
X001960Y004605D01*
X002195Y004439D01*
X002302Y004497D01*
X002417Y004537D01*
X002458Y004821D01*
X002772Y004821D01*
X002813Y004517D01*
X002923Y004482D01*
X003025Y004429D01*
X003290Y004605D01*
X003495Y004400D01*
X003319Y004155D01*
X003377Y004048D01*
X003417Y003933D01*
X003711Y003902D01*
X003711Y003578D01*
X003427Y003537D01*
X003403Y003456D01*
X003370Y003378D01*
X003329Y003305D01*
X003505Y003080D01*
X003280Y002855D01*
X003191Y002926D01*
X003191Y003700D01*
X003188Y003792D01*
X003170Y003882D01*
X003137Y003968D01*
X003091Y004047D01*
X003032Y004118D01*
X002963Y004178D01*
X002885Y004226D01*
X002800Y004260D01*
X002710Y004280D01*
X002747Y004307D01*
X002776Y004342D01*
X002797Y004382D01*
X002808Y004426D01*
X002809Y004471D01*
X002800Y004516D01*
X002781Y004557D01*
X002753Y004593D01*
X002718Y004622D01*
X002677Y004642D01*
X002633Y004652D01*
X002587Y004652D01*
X002543Y004642D01*
X002502Y004622D01*
X002467Y004593D01*
X002439Y004557D01*
X002420Y004516D01*
X002411Y004471D01*
X002412Y004426D01*
X002423Y004382D01*
X002444Y004342D01*
X002473Y004307D01*
X002510Y004280D01*
X002510Y004270D01*
X002422Y004250D01*
X002339Y004216D01*
X002262Y004169D01*
X002194Y004110D01*
X002137Y004041D01*
X002091Y003963D01*
X002060Y003878D01*
X002042Y003790D01*
X002039Y003700D01*
X002039Y002906D01*
X001960Y002855D01*
X001745Y003070D01*
X001911Y003295D01*
X001857Y003407D01*
X001823Y003527D01*
X002039Y003598D02*
X001529Y003598D01*
X001529Y003696D02*
X002039Y003696D01*
X002043Y003795D02*
X001529Y003795D01*
X001536Y003893D02*
X002065Y003893D01*
X002108Y003992D02*
X001843Y003992D01*
X001884Y004090D02*
X002177Y004090D01*
X002293Y004189D02*
X001880Y004189D01*
X001809Y004287D02*
X002501Y004287D01*
X002719Y004287D02*
X003414Y004287D01*
X003343Y004189D02*
X002945Y004189D01*
X003055Y004090D02*
X003355Y004090D01*
X003397Y003992D02*
X003123Y003992D01*
X003165Y003893D02*
X003711Y003893D01*
X003711Y003795D02*
X003187Y003795D01*
X003191Y003696D02*
X003711Y003696D01*
X003711Y003598D02*
X003191Y003598D01*
X003191Y003499D02*
X003416Y003499D01*
X003380Y003401D02*
X003191Y003401D01*
X003191Y003302D02*
X003331Y003302D01*
X003408Y003204D02*
X003191Y003204D01*
X003191Y003105D02*
X003486Y003105D01*
X003431Y003007D02*
X003191Y003007D01*
X003213Y002908D02*
X003333Y002908D01*
X002039Y002908D02*
X001907Y002908D01*
X001809Y003007D02*
X002039Y003007D01*
X002039Y003105D02*
X001771Y003105D01*
X001844Y003204D02*
X002039Y003204D01*
X002039Y003302D02*
X001908Y003302D01*
X001860Y003401D02*
X002039Y003401D01*
X001738Y004386D02*
X002422Y004386D01*
X002413Y004484D02*
X002277Y004484D01*
X002131Y004484D02*
X001834Y004484D01*
X001937Y004583D02*
X001992Y004583D01*
X002423Y004583D02*
X002459Y004583D01*
X002437Y004681D02*
X002791Y004681D01*
X002805Y004583D02*
X002761Y004583D01*
X002807Y004484D02*
X002916Y004484D01*
X002798Y004386D02*
X003485Y004386D01*
X003411Y004484D02*
X003108Y004484D01*
X003256Y004583D02*
X003312Y004583D01*
X002778Y004780D02*
X002452Y004780D01*
D15*
X002460Y003140D02*
X002560Y003010D01*
X002780Y003010D01*
X002860Y003140D01*
X002460Y003140D01*
X002484Y003109D02*
X002841Y003109D01*
X002811Y003060D02*
X002522Y003060D01*
X002559Y003012D02*
X002781Y003012D01*
M02*
