G75*
%MOIN*%
%OFA0B0*%
%FSLAX24Y24*%
%IPPOS*%
%LPD*%
%AMOC8*
5,1,8,0,0,1.08239X$1,22.5*
%
%ADD10OC8,0.0600*%
%ADD11C,0.0100*%
%ADD12C,0.0270*%
%ADD13C,0.0160*%
D10*
X000850Y000900D03*
X001850Y000900D03*
X002850Y000900D03*
X003850Y000900D03*
X004850Y000900D03*
X005850Y000900D03*
X006850Y000900D03*
X007850Y002400D03*
X007850Y003400D03*
X007850Y004400D03*
X006850Y005900D03*
X005850Y005900D03*
X004850Y005900D03*
X003850Y005900D03*
X002850Y005900D03*
X001850Y005900D03*
X000850Y005900D03*
D11*
X000665Y000397D02*
X008635Y000397D01*
X008588Y000350D02*
X000712Y000350D01*
X000300Y000762D01*
X000300Y006038D01*
X000712Y006450D01*
X008588Y006450D01*
X009000Y006038D01*
X009000Y000762D01*
X008588Y000350D01*
X008733Y000496D02*
X007082Y000496D01*
X007036Y000450D02*
X007300Y000714D01*
X007300Y001086D01*
X007036Y001350D01*
X006664Y001350D01*
X006400Y001086D01*
X006400Y000714D01*
X006664Y000450D01*
X007036Y000450D01*
X007180Y000594D02*
X008832Y000594D01*
X008930Y000693D02*
X007279Y000693D01*
X007300Y000791D02*
X009000Y000791D01*
X009000Y000890D02*
X007300Y000890D01*
X007300Y000988D02*
X009000Y000988D01*
X009000Y001087D02*
X007300Y001087D01*
X007201Y001185D02*
X009000Y001185D01*
X009000Y001284D02*
X007103Y001284D01*
X006597Y001284D02*
X006103Y001284D01*
X006036Y001350D02*
X005664Y001350D01*
X005400Y001086D01*
X005400Y000714D01*
X005664Y000450D01*
X006036Y000450D01*
X006300Y000714D01*
X006300Y001086D01*
X006036Y001350D01*
X006201Y001185D02*
X006499Y001185D01*
X006400Y001087D02*
X006300Y001087D01*
X006300Y000988D02*
X006400Y000988D01*
X006400Y000890D02*
X006300Y000890D01*
X006300Y000791D02*
X006400Y000791D01*
X006421Y000693D02*
X006279Y000693D01*
X006180Y000594D02*
X006520Y000594D01*
X006618Y000496D02*
X006082Y000496D01*
X005618Y000496D02*
X005082Y000496D01*
X005036Y000450D02*
X005300Y000714D01*
X005300Y001086D01*
X005036Y001350D01*
X004664Y001350D01*
X004400Y001086D01*
X004400Y000714D01*
X004664Y000450D01*
X005036Y000450D01*
X005180Y000594D02*
X005520Y000594D01*
X005421Y000693D02*
X005279Y000693D01*
X005300Y000791D02*
X005400Y000791D01*
X005400Y000890D02*
X005300Y000890D01*
X005300Y000988D02*
X005400Y000988D01*
X005400Y001087D02*
X005300Y001087D01*
X005201Y001185D02*
X005499Y001185D01*
X005597Y001284D02*
X005103Y001284D01*
X004597Y001284D02*
X004103Y001284D01*
X004036Y001350D02*
X003664Y001350D01*
X003400Y001086D01*
X003400Y000714D01*
X003664Y000450D01*
X004036Y000450D01*
X004300Y000714D01*
X004300Y001086D01*
X004036Y001350D01*
X004201Y001185D02*
X004499Y001185D01*
X004400Y001087D02*
X004300Y001087D01*
X004300Y000988D02*
X004400Y000988D01*
X004400Y000890D02*
X004300Y000890D01*
X004300Y000791D02*
X004400Y000791D01*
X004421Y000693D02*
X004279Y000693D01*
X004180Y000594D02*
X004520Y000594D01*
X004618Y000496D02*
X004082Y000496D01*
X003618Y000496D02*
X003082Y000496D01*
X003036Y000450D02*
X003300Y000714D01*
X003300Y001086D01*
X003036Y001350D01*
X002664Y001350D01*
X002400Y001086D01*
X002400Y000714D01*
X002664Y000450D01*
X003036Y000450D01*
X003180Y000594D02*
X003520Y000594D01*
X003421Y000693D02*
X003279Y000693D01*
X003300Y000791D02*
X003400Y000791D01*
X003400Y000890D02*
X003300Y000890D01*
X003300Y000988D02*
X003400Y000988D01*
X003400Y001087D02*
X003300Y001087D01*
X003201Y001185D02*
X003499Y001185D01*
X003597Y001284D02*
X003103Y001284D01*
X002597Y001284D02*
X002103Y001284D01*
X002036Y001350D02*
X001664Y001350D01*
X001400Y001086D01*
X001400Y000714D01*
X001664Y000450D01*
X002036Y000450D01*
X002300Y000714D01*
X002300Y001086D01*
X002036Y001350D01*
X002201Y001185D02*
X002499Y001185D01*
X002400Y001087D02*
X002300Y001087D01*
X002300Y000988D02*
X002400Y000988D01*
X002400Y000890D02*
X002300Y000890D01*
X002300Y000791D02*
X002400Y000791D01*
X002421Y000693D02*
X002279Y000693D01*
X002180Y000594D02*
X002520Y000594D01*
X002618Y000496D02*
X002082Y000496D01*
X001618Y000496D02*
X001082Y000496D01*
X001036Y000450D02*
X001300Y000714D01*
X001300Y001086D01*
X001036Y001350D01*
X000664Y001350D01*
X000400Y001086D01*
X000400Y000714D01*
X000664Y000450D01*
X001036Y000450D01*
X001180Y000594D02*
X001520Y000594D01*
X001421Y000693D02*
X001279Y000693D01*
X001300Y000791D02*
X001400Y000791D01*
X001400Y000890D02*
X001300Y000890D01*
X001300Y000988D02*
X001400Y000988D01*
X001400Y001087D02*
X001300Y001087D01*
X001201Y001185D02*
X001499Y001185D01*
X001597Y001284D02*
X001103Y001284D01*
X000597Y001284D02*
X000300Y001284D01*
X000300Y001185D02*
X000499Y001185D01*
X000400Y001087D02*
X000300Y001087D01*
X000300Y000988D02*
X000400Y000988D01*
X000400Y000890D02*
X000300Y000890D01*
X000300Y000791D02*
X000400Y000791D01*
X000421Y000693D02*
X000370Y000693D01*
X000468Y000594D02*
X000520Y000594D01*
X000567Y000496D02*
X000618Y000496D01*
X000300Y001382D02*
X009000Y001382D01*
X009000Y001481D02*
X000300Y001481D01*
X000300Y001579D02*
X009000Y001579D01*
X009000Y001678D02*
X000300Y001678D01*
X000300Y001776D02*
X009000Y001776D01*
X009000Y001875D02*
X000300Y001875D01*
X000300Y001973D02*
X007641Y001973D01*
X007664Y001950D02*
X008036Y001950D01*
X008300Y002214D01*
X008300Y002586D01*
X008036Y002850D01*
X007664Y002850D01*
X007400Y002586D01*
X007400Y002214D01*
X007664Y001950D01*
X007542Y002072D02*
X000300Y002072D01*
X000300Y002170D02*
X007444Y002170D01*
X007400Y002269D02*
X000300Y002269D01*
X000300Y002367D02*
X007400Y002367D01*
X007400Y002466D02*
X000300Y002466D01*
X000300Y002564D02*
X007400Y002564D01*
X007476Y002663D02*
X000300Y002663D01*
X000300Y002761D02*
X007575Y002761D01*
X007664Y002950D02*
X007400Y003214D01*
X007400Y003350D01*
X007800Y003350D01*
X007800Y003450D01*
X007800Y003850D01*
X007664Y003850D01*
X007400Y003586D01*
X007400Y003450D01*
X007800Y003450D01*
X007900Y003450D01*
X007900Y003850D01*
X008036Y003850D01*
X008300Y003586D01*
X008300Y003450D01*
X007900Y003450D01*
X007900Y003350D01*
X008300Y003350D01*
X008300Y003214D01*
X008036Y002950D01*
X007900Y002950D01*
X007900Y003350D01*
X007800Y003350D01*
X007800Y002950D01*
X007664Y002950D01*
X007656Y002958D02*
X005279Y002958D01*
X005300Y003009D02*
X005257Y002904D01*
X005177Y002824D01*
X005072Y002780D01*
X004959Y002780D01*
X004854Y002824D01*
X004774Y002904D01*
X004730Y003009D01*
X004730Y003122D01*
X004774Y003227D01*
X004854Y003307D01*
X004959Y003350D01*
X004975Y003350D01*
X005465Y003840D01*
X005465Y003857D01*
X005508Y003961D01*
X005589Y004042D01*
X005693Y004085D01*
X005807Y004085D01*
X005911Y004042D01*
X005992Y003961D01*
X006035Y003857D01*
X006035Y003743D01*
X005992Y003639D01*
X005911Y003558D01*
X005807Y003515D01*
X005790Y003515D01*
X005300Y003025D01*
X005300Y003009D01*
X005332Y003057D02*
X007557Y003057D01*
X007459Y003155D02*
X005430Y003155D01*
X005529Y003254D02*
X007400Y003254D01*
X007400Y003451D02*
X005726Y003451D01*
X005627Y003352D02*
X007800Y003352D01*
X007800Y003451D02*
X007900Y003451D01*
X007900Y003352D02*
X009000Y003352D01*
X009000Y003451D02*
X008300Y003451D01*
X008300Y003549D02*
X009000Y003549D01*
X009000Y003648D02*
X008239Y003648D01*
X008140Y003746D02*
X009000Y003746D01*
X009000Y003845D02*
X008042Y003845D01*
X007900Y003845D02*
X007800Y003845D01*
X007800Y003746D02*
X007900Y003746D01*
X007900Y003648D02*
X007800Y003648D01*
X007800Y003549D02*
X007900Y003549D01*
X007560Y003746D02*
X006035Y003746D01*
X006035Y003845D02*
X007658Y003845D01*
X007664Y003950D02*
X008036Y003950D01*
X008300Y004214D01*
X008300Y004586D01*
X008036Y004850D01*
X007664Y004850D01*
X007400Y004586D01*
X007400Y004214D01*
X007664Y003950D01*
X007572Y004042D02*
X005912Y004042D01*
X005999Y003943D02*
X009000Y003943D01*
X009000Y004042D02*
X008128Y004042D01*
X008226Y004140D02*
X009000Y004140D01*
X009000Y004239D02*
X008300Y004239D01*
X008300Y004337D02*
X009000Y004337D01*
X009000Y004436D02*
X008300Y004436D01*
X008300Y004534D02*
X009000Y004534D01*
X009000Y004633D02*
X008254Y004633D01*
X008155Y004731D02*
X009000Y004731D01*
X009000Y004830D02*
X008057Y004830D01*
X007643Y004830D02*
X000300Y004830D01*
X000300Y004928D02*
X009000Y004928D01*
X009000Y005027D02*
X000300Y005027D01*
X000300Y005125D02*
X009000Y005125D01*
X009000Y005224D02*
X000300Y005224D01*
X000300Y005322D02*
X009000Y005322D01*
X009000Y005421D02*
X000300Y005421D01*
X000300Y005519D02*
X000595Y005519D01*
X000664Y005450D02*
X000800Y005450D01*
X000800Y005850D01*
X000900Y005850D01*
X000900Y005950D01*
X001300Y005950D01*
X001300Y006086D01*
X001036Y006350D01*
X000900Y006350D01*
X000900Y005950D01*
X000800Y005950D01*
X000800Y006350D01*
X000664Y006350D01*
X000400Y006086D01*
X000400Y005950D01*
X000800Y005950D01*
X000800Y005850D01*
X000400Y005850D01*
X000400Y005714D01*
X000664Y005450D01*
X000800Y005519D02*
X000900Y005519D01*
X000900Y005450D02*
X001036Y005450D01*
X001300Y005714D01*
X001300Y005850D01*
X000900Y005850D01*
X000900Y005450D01*
X000900Y005618D02*
X000800Y005618D01*
X000800Y005716D02*
X000900Y005716D01*
X000900Y005815D02*
X000800Y005815D01*
X000800Y005913D02*
X000300Y005913D01*
X000300Y005815D02*
X000400Y005815D01*
X000400Y005716D02*
X000300Y005716D01*
X000300Y005618D02*
X000496Y005618D01*
X000900Y005913D02*
X001400Y005913D01*
X001400Y005815D02*
X001300Y005815D01*
X001300Y005716D02*
X001400Y005716D01*
X001400Y005714D02*
X001664Y005450D01*
X002036Y005450D01*
X002300Y005714D01*
X002300Y006086D01*
X002036Y006350D01*
X001664Y006350D01*
X001400Y006086D01*
X001400Y005714D01*
X001496Y005618D02*
X001204Y005618D01*
X001105Y005519D02*
X001595Y005519D01*
X002105Y005519D02*
X002595Y005519D01*
X002664Y005450D02*
X003036Y005450D01*
X003300Y005714D01*
X003300Y006086D01*
X003036Y006350D01*
X002664Y006350D01*
X002400Y006086D01*
X002400Y005714D01*
X002664Y005450D01*
X002496Y005618D02*
X002204Y005618D01*
X002300Y005716D02*
X002400Y005716D01*
X002400Y005815D02*
X002300Y005815D01*
X002300Y005913D02*
X002400Y005913D01*
X002400Y006012D02*
X002300Y006012D01*
X002276Y006110D02*
X002424Y006110D01*
X002522Y006209D02*
X002178Y006209D01*
X002079Y006307D02*
X002621Y006307D01*
X003079Y006307D02*
X003621Y006307D01*
X003664Y006350D02*
X003400Y006086D01*
X003400Y005714D01*
X003664Y005450D01*
X004036Y005450D01*
X004300Y005714D01*
X004300Y006086D01*
X004036Y006350D01*
X003664Y006350D01*
X003522Y006209D02*
X003178Y006209D01*
X003276Y006110D02*
X003424Y006110D01*
X003400Y006012D02*
X003300Y006012D01*
X003300Y005913D02*
X003400Y005913D01*
X003400Y005815D02*
X003300Y005815D01*
X003300Y005716D02*
X003400Y005716D01*
X003496Y005618D02*
X003204Y005618D01*
X003105Y005519D02*
X003595Y005519D01*
X004105Y005519D02*
X004595Y005519D01*
X004664Y005450D02*
X005036Y005450D01*
X005300Y005714D01*
X005300Y006086D01*
X005036Y006350D01*
X004664Y006350D01*
X004400Y006086D01*
X004400Y005714D01*
X004664Y005450D01*
X004496Y005618D02*
X004204Y005618D01*
X004300Y005716D02*
X004400Y005716D01*
X004400Y005815D02*
X004300Y005815D01*
X004300Y005913D02*
X004400Y005913D01*
X004400Y006012D02*
X004300Y006012D01*
X004276Y006110D02*
X004424Y006110D01*
X004522Y006209D02*
X004178Y006209D01*
X004079Y006307D02*
X004621Y006307D01*
X005079Y006307D02*
X005621Y006307D01*
X005664Y006350D02*
X005400Y006086D01*
X005400Y005714D01*
X005664Y005450D01*
X006036Y005450D01*
X006300Y005714D01*
X006300Y006086D01*
X006036Y006350D01*
X005664Y006350D01*
X005522Y006209D02*
X005178Y006209D01*
X005276Y006110D02*
X005424Y006110D01*
X005400Y006012D02*
X005300Y006012D01*
X005300Y005913D02*
X005400Y005913D01*
X005400Y005815D02*
X005300Y005815D01*
X005300Y005716D02*
X005400Y005716D01*
X005496Y005618D02*
X005204Y005618D01*
X005105Y005519D02*
X005595Y005519D01*
X006105Y005519D02*
X006595Y005519D01*
X006664Y005450D02*
X007036Y005450D01*
X007300Y005714D01*
X007300Y006086D01*
X007036Y006350D01*
X006664Y006350D01*
X006400Y006086D01*
X006400Y005714D01*
X006664Y005450D01*
X006496Y005618D02*
X006204Y005618D01*
X006300Y005716D02*
X006400Y005716D01*
X006400Y005815D02*
X006300Y005815D01*
X006300Y005913D02*
X006400Y005913D01*
X006400Y006012D02*
X006300Y006012D01*
X006276Y006110D02*
X006424Y006110D01*
X006522Y006209D02*
X006178Y006209D01*
X006079Y006307D02*
X006621Y006307D01*
X007079Y006307D02*
X008731Y006307D01*
X008829Y006209D02*
X007178Y006209D01*
X007276Y006110D02*
X008928Y006110D01*
X009000Y006012D02*
X007300Y006012D01*
X007300Y005913D02*
X009000Y005913D01*
X009000Y005815D02*
X007300Y005815D01*
X007300Y005716D02*
X009000Y005716D01*
X009000Y005618D02*
X007204Y005618D01*
X007105Y005519D02*
X009000Y005519D01*
X008632Y006406D02*
X000668Y006406D01*
X000621Y006307D02*
X000569Y006307D01*
X000522Y006209D02*
X000471Y006209D01*
X000424Y006110D02*
X000372Y006110D01*
X000400Y006012D02*
X000300Y006012D01*
X000800Y006012D02*
X000900Y006012D01*
X000900Y006110D02*
X000800Y006110D01*
X000800Y006209D02*
X000900Y006209D01*
X000900Y006307D02*
X000800Y006307D01*
X001079Y006307D02*
X001621Y006307D01*
X001522Y006209D02*
X001178Y006209D01*
X001276Y006110D02*
X001424Y006110D01*
X001400Y006012D02*
X001300Y006012D01*
X000300Y004731D02*
X007545Y004731D01*
X007446Y004633D02*
X000300Y004633D01*
X000300Y004534D02*
X007400Y004534D01*
X007400Y004436D02*
X000300Y004436D01*
X000300Y004337D02*
X007400Y004337D01*
X007400Y004239D02*
X000300Y004239D01*
X000300Y004140D02*
X007474Y004140D01*
X007461Y003648D02*
X005995Y003648D01*
X005889Y003549D02*
X007400Y003549D01*
X007800Y003254D02*
X007900Y003254D01*
X007900Y003155D02*
X007800Y003155D01*
X007800Y003057D02*
X007900Y003057D01*
X007900Y002958D02*
X007800Y002958D01*
X008044Y002958D02*
X009000Y002958D01*
X009000Y002860D02*
X005213Y002860D01*
X004818Y002860D02*
X000300Y002860D01*
X000300Y002958D02*
X004751Y002958D01*
X004730Y003057D02*
X000300Y003057D01*
X000300Y003155D02*
X004744Y003155D01*
X004800Y003254D02*
X000300Y003254D01*
X000300Y003352D02*
X004977Y003352D01*
X005075Y003451D02*
X000300Y003451D01*
X000300Y003549D02*
X005174Y003549D01*
X005272Y003648D02*
X000300Y003648D01*
X000300Y003746D02*
X005371Y003746D01*
X005465Y003845D02*
X000300Y003845D01*
X000300Y003943D02*
X005501Y003943D01*
X005588Y004042D02*
X000300Y004042D01*
X008143Y003057D02*
X009000Y003057D01*
X009000Y003155D02*
X008241Y003155D01*
X008300Y003254D02*
X009000Y003254D01*
X009000Y002761D02*
X008125Y002761D01*
X008224Y002663D02*
X009000Y002663D01*
X009000Y002564D02*
X008300Y002564D01*
X008300Y002466D02*
X009000Y002466D01*
X009000Y002367D02*
X008300Y002367D01*
X008300Y002269D02*
X009000Y002269D01*
X009000Y002170D02*
X008256Y002170D01*
X008158Y002072D02*
X009000Y002072D01*
X009000Y001973D02*
X008059Y001973D01*
D12*
X005750Y003800D03*
X005015Y003065D03*
X002450Y003981D03*
X001655Y004025D03*
X000755Y004365D03*
D13*
X005015Y003065D02*
X005750Y003800D01*
M02*
