G75*
%MOIN*%
%OFA0B0*%
%FSLAX24Y24*%
%IPPOS*%
%LPD*%
%AMOC8*
5,1,8,0,0,1.08239X$1,22.5*
%
%ADD10C,0.0030*%
%ADD11C,0.0040*%
%ADD12C,0.0060*%
%ADD13C,0.0110*%
%ADD14C,0.0100*%
%ADD15C,0.0050*%
D10*
X000494Y001563D02*
X000543Y001515D01*
X000688Y001515D01*
X000688Y001805D01*
X000543Y001805D01*
X000494Y001757D01*
X000494Y001563D01*
X000789Y001515D02*
X000789Y001805D01*
X000982Y001805D02*
X000789Y001515D01*
X000982Y001515D02*
X000982Y001805D01*
X001083Y001757D02*
X001132Y001805D01*
X001229Y001805D01*
X001277Y001757D01*
X001277Y001563D01*
X001229Y001515D01*
X001132Y001515D01*
X001083Y001563D01*
X001083Y001660D01*
X001180Y001660D01*
X001494Y001660D02*
X001688Y001660D01*
X001543Y001805D01*
X001543Y001515D01*
X001789Y001515D02*
X001789Y001708D01*
X001886Y001805D01*
X001982Y001708D01*
X001982Y001515D01*
X002083Y001660D02*
X002132Y001612D01*
X002277Y001612D01*
X002277Y001515D02*
X002277Y001805D01*
X002132Y001805D01*
X002083Y001757D01*
X002083Y001660D01*
X001982Y001660D02*
X001789Y001660D01*
X002494Y001660D02*
X002494Y001563D01*
X002543Y001515D01*
X002639Y001515D01*
X002688Y001563D01*
X002789Y001515D02*
X002789Y001708D01*
X002886Y001805D01*
X002982Y001708D01*
X002982Y001515D01*
X003083Y001660D02*
X003132Y001612D01*
X003277Y001612D01*
X003277Y001515D02*
X003277Y001805D01*
X003132Y001805D01*
X003083Y001757D01*
X003083Y001660D01*
X002982Y001660D02*
X002789Y001660D01*
X002688Y001660D02*
X002591Y001708D01*
X002543Y001708D01*
X002494Y001660D01*
X002494Y001805D02*
X002688Y001805D01*
X002688Y001660D01*
X002564Y002018D02*
X002515Y002018D01*
X002467Y002067D01*
X002467Y002308D01*
X002612Y002308D01*
X002660Y002260D01*
X002660Y002163D01*
X002612Y002115D01*
X002467Y002115D01*
X002366Y002115D02*
X002366Y002405D01*
X002317Y002308D02*
X002221Y002308D01*
X002172Y002260D01*
X002172Y002115D01*
X002023Y002163D02*
X001974Y002115D01*
X002023Y002163D02*
X002023Y002357D01*
X002071Y002308D02*
X001974Y002308D01*
X001875Y002260D02*
X001826Y002212D01*
X001730Y002212D01*
X001681Y002163D01*
X001730Y002115D01*
X001875Y002115D01*
X001875Y002260D02*
X001826Y002308D01*
X001681Y002308D01*
X001580Y002163D02*
X001532Y002163D01*
X001532Y002115D01*
X001580Y002115D01*
X001580Y002163D01*
X001433Y002163D02*
X001384Y002115D01*
X001239Y002115D01*
X001138Y002163D02*
X001090Y002115D01*
X000993Y002115D01*
X000945Y002163D01*
X000945Y002260D01*
X000993Y002308D01*
X001090Y002308D01*
X001138Y002260D01*
X001138Y002163D01*
X001239Y002308D02*
X001384Y002308D01*
X001433Y002260D01*
X001433Y002163D01*
X000843Y002115D02*
X000843Y002308D01*
X000795Y002308D01*
X000747Y002260D01*
X000698Y002308D01*
X000650Y002260D01*
X000650Y002115D01*
X000747Y002115D02*
X000747Y002260D01*
X002317Y002308D02*
X002366Y002260D01*
X002762Y002308D02*
X002762Y002115D01*
X002907Y002115D01*
X002955Y002163D01*
X002955Y002308D01*
X003056Y002260D02*
X003105Y002308D01*
X003201Y002308D01*
X003250Y002260D01*
X003250Y002163D01*
X003201Y002115D01*
X003105Y002115D01*
X003056Y002163D01*
X003056Y002260D01*
X003351Y002260D02*
X003351Y002115D01*
X003351Y002260D02*
X003399Y002308D01*
X003496Y002308D01*
X003544Y002260D01*
X003644Y002308D02*
X003741Y002308D01*
X003692Y002357D02*
X003692Y002163D01*
X003644Y002115D01*
X003544Y002115D02*
X003544Y002405D01*
X003842Y002260D02*
X004035Y002260D01*
X004135Y002308D02*
X004232Y002308D01*
X004184Y002357D02*
X004184Y002163D01*
X004135Y002115D01*
X004333Y002163D02*
X004333Y002260D01*
X004381Y002308D01*
X004478Y002308D01*
X004527Y002260D01*
X004527Y002163D01*
X004478Y002115D01*
X004381Y002115D01*
X004333Y002163D01*
X004628Y002163D02*
X004628Y002260D01*
X004676Y002308D01*
X004821Y002308D01*
X004821Y002405D02*
X004821Y002115D01*
X004676Y002115D01*
X004628Y002163D01*
X004688Y001805D02*
X004494Y001805D01*
X004494Y001757D01*
X004688Y001563D01*
X004688Y001515D01*
X004789Y001515D02*
X004789Y001708D01*
X004886Y001805D01*
X004982Y001708D01*
X004982Y001515D01*
X004982Y001660D02*
X004789Y001660D01*
X005083Y001660D02*
X005132Y001612D01*
X005277Y001612D01*
X005277Y001515D02*
X005277Y001805D01*
X005132Y001805D01*
X005083Y001757D01*
X005083Y001660D01*
X005494Y001612D02*
X005494Y001563D01*
X005543Y001515D01*
X005639Y001515D01*
X005688Y001563D01*
X005789Y001563D02*
X005789Y001612D01*
X005837Y001660D01*
X005982Y001660D01*
X006083Y001660D02*
X006083Y001757D01*
X006132Y001805D01*
X006277Y001805D01*
X006277Y001515D01*
X006277Y001612D02*
X006132Y001612D01*
X006083Y001660D01*
X005982Y001515D02*
X005837Y001515D01*
X005789Y001563D01*
X005982Y001515D02*
X005982Y001805D01*
X005837Y001805D01*
X005789Y001757D01*
X005789Y001708D01*
X005837Y001660D01*
X005688Y001757D02*
X005639Y001805D01*
X005543Y001805D01*
X005494Y001757D01*
X005494Y001708D01*
X005543Y001660D01*
X005494Y001612D01*
X005543Y001660D02*
X005591Y001660D01*
X005562Y002015D02*
X005562Y002208D01*
X005465Y002305D01*
X005368Y002208D01*
X005368Y002015D01*
X005368Y002160D02*
X005562Y002160D01*
X005663Y002063D02*
X005663Y002257D01*
X005711Y002305D01*
X005856Y002305D01*
X005856Y002015D01*
X005711Y002015D01*
X005663Y002063D01*
X005958Y002063D02*
X006006Y002015D01*
X006103Y002015D01*
X006151Y002063D01*
X006103Y002160D02*
X006006Y002160D01*
X005958Y002112D01*
X005958Y002063D01*
X006103Y002160D02*
X006151Y002208D01*
X006151Y002257D01*
X006103Y002305D01*
X006006Y002305D01*
X005958Y002257D01*
X006006Y002495D02*
X006103Y002495D01*
X006151Y002543D01*
X006103Y002640D02*
X006006Y002640D01*
X005958Y002592D01*
X005958Y002543D01*
X006006Y002495D01*
X005856Y002543D02*
X005808Y002495D01*
X005711Y002495D01*
X005663Y002543D01*
X005562Y002495D02*
X005368Y002495D01*
X005562Y002495D02*
X005562Y002785D01*
X005663Y002737D02*
X005711Y002785D01*
X005808Y002785D01*
X005856Y002737D01*
X005856Y002543D01*
X006103Y002640D02*
X006151Y002688D01*
X006151Y002737D01*
X006103Y002785D01*
X006006Y002785D01*
X005958Y002737D01*
X006006Y002975D02*
X005958Y003023D01*
X005958Y003265D01*
X005856Y003168D02*
X005760Y003265D01*
X005663Y003168D01*
X005663Y002975D01*
X005562Y002975D02*
X005562Y003265D01*
X005417Y003265D01*
X005368Y003217D01*
X005368Y003120D01*
X005417Y003072D01*
X005562Y003072D01*
X005465Y003072D02*
X005368Y002975D01*
X005170Y002975D02*
X005170Y003265D01*
X005074Y003265D02*
X005267Y003265D01*
X005267Y003455D02*
X005267Y003745D01*
X005074Y003455D01*
X005074Y003745D01*
X004972Y003697D02*
X004972Y003503D01*
X004924Y003455D01*
X004827Y003455D01*
X004779Y003503D01*
X004779Y003697D02*
X004827Y003745D01*
X004924Y003745D01*
X004972Y003697D01*
X005368Y003697D02*
X005368Y003745D01*
X005368Y003697D02*
X005465Y003600D01*
X005465Y003455D01*
X005663Y003503D02*
X005711Y003455D01*
X005808Y003455D01*
X005856Y003503D01*
X005808Y003600D02*
X005711Y003600D01*
X005663Y003552D01*
X005663Y003503D01*
X005562Y003697D02*
X005465Y003600D01*
X005562Y003697D02*
X005562Y003745D01*
X005663Y003697D02*
X005711Y003745D01*
X005808Y003745D01*
X005856Y003697D01*
X005856Y003648D01*
X005808Y003600D01*
X005958Y003600D02*
X006151Y003600D01*
X006151Y003648D02*
X006054Y003745D01*
X005958Y003648D01*
X005958Y003455D01*
X006151Y003455D02*
X006151Y003648D01*
X006151Y003935D02*
X006151Y004225D01*
X006006Y004225D01*
X005958Y004177D01*
X005958Y004080D01*
X006006Y004032D01*
X006151Y004032D01*
X005856Y003935D02*
X005856Y004225D01*
X005663Y004225D02*
X005663Y003935D01*
X005760Y004032D01*
X005856Y003935D01*
X005562Y003935D02*
X005562Y004225D01*
X005465Y004128D01*
X005368Y004225D01*
X005368Y003935D01*
X006199Y004467D02*
X006199Y004708D01*
X006344Y004708D01*
X006393Y004660D01*
X006393Y004563D01*
X006344Y004515D01*
X006199Y004515D01*
X006199Y004467D02*
X006247Y004418D01*
X006296Y004418D01*
X006492Y004515D02*
X006540Y004515D01*
X006540Y004563D01*
X006492Y004563D01*
X006492Y004515D01*
X006641Y004563D02*
X006689Y004612D01*
X006786Y004612D01*
X006835Y004660D01*
X006786Y004708D01*
X006641Y004708D01*
X006641Y004563D02*
X006689Y004515D01*
X006835Y004515D01*
X006934Y004515D02*
X007031Y004515D01*
X006983Y004515D02*
X006983Y004708D01*
X007031Y004708D01*
X006983Y004805D02*
X006983Y004854D01*
X006863Y004995D02*
X006718Y004995D01*
X006718Y005285D01*
X006863Y005285D01*
X006911Y005237D01*
X006911Y005188D01*
X006863Y005140D01*
X006718Y005140D01*
X006617Y005140D02*
X006617Y005043D01*
X006568Y004995D01*
X006423Y004995D01*
X006423Y005285D01*
X006423Y005188D02*
X006568Y005188D01*
X006617Y005140D01*
X006863Y005140D02*
X006911Y005092D01*
X006911Y005043D01*
X006863Y004995D01*
X007012Y005092D02*
X007109Y004995D01*
X007109Y005285D01*
X007012Y005285D02*
X007206Y005285D01*
X006206Y005237D02*
X006206Y005043D01*
X006012Y005237D01*
X006061Y005285D01*
X006157Y005285D01*
X006206Y005237D01*
X006012Y005237D02*
X006012Y005043D01*
X006061Y004995D01*
X006157Y004995D01*
X006206Y005043D01*
X005911Y005043D02*
X005911Y005092D01*
X005863Y005140D01*
X005718Y005140D01*
X005617Y005140D02*
X005617Y005043D01*
X005568Y004995D01*
X005423Y004995D01*
X005423Y005285D01*
X005423Y005188D02*
X005568Y005188D01*
X005617Y005140D01*
X005718Y005285D02*
X005718Y004995D01*
X005863Y004995D01*
X005911Y005043D01*
X005863Y005140D02*
X005911Y005188D01*
X005911Y005237D01*
X005863Y005285D01*
X005718Y005285D01*
X005206Y005237D02*
X005206Y005043D01*
X005012Y005237D01*
X005061Y005285D01*
X005157Y005285D01*
X005206Y005237D01*
X005012Y005237D02*
X005012Y005043D01*
X005061Y004995D01*
X005157Y004995D01*
X005206Y005043D01*
X004911Y005092D02*
X004911Y005285D01*
X004911Y005140D02*
X004718Y005140D01*
X004718Y005092D02*
X004814Y004995D01*
X004911Y005092D01*
X004718Y005092D02*
X004718Y005285D01*
X004617Y005140D02*
X004568Y005188D01*
X004423Y005188D01*
X004423Y005285D02*
X004423Y004995D01*
X004568Y004995D01*
X004617Y005043D01*
X004617Y005140D01*
X004206Y005285D02*
X004012Y005285D01*
X004109Y005285D02*
X004109Y004995D01*
X004012Y005092D01*
X003911Y005092D02*
X003911Y005285D01*
X003911Y005140D02*
X003718Y005140D01*
X003718Y005092D02*
X003814Y004995D01*
X003911Y005092D01*
X003718Y005092D02*
X003718Y005285D01*
X003617Y005140D02*
X003568Y005188D01*
X003423Y005188D01*
X003423Y005285D02*
X003423Y004995D01*
X003568Y004995D01*
X003617Y005043D01*
X003617Y005140D01*
X003206Y005092D02*
X003206Y005043D01*
X003157Y004995D01*
X003061Y004995D01*
X003012Y005043D01*
X002911Y005092D02*
X002911Y005285D01*
X003012Y005285D02*
X003206Y005092D01*
X003206Y005285D02*
X003012Y005285D01*
X002911Y005140D02*
X002718Y005140D01*
X002718Y005092D02*
X002814Y004995D01*
X002911Y005092D01*
X002718Y005092D02*
X002718Y005285D01*
X002617Y005140D02*
X002568Y005188D01*
X002423Y005188D01*
X002423Y005285D02*
X002423Y004995D01*
X002568Y004995D01*
X002617Y005043D01*
X002617Y005140D01*
X002206Y005188D02*
X002157Y005140D01*
X002109Y005140D01*
X002157Y005140D02*
X002206Y005092D01*
X002206Y005043D01*
X002157Y004995D01*
X002061Y004995D01*
X002012Y005043D01*
X001911Y005092D02*
X001911Y005285D01*
X002012Y005237D02*
X002061Y005285D01*
X002157Y005285D01*
X002206Y005237D01*
X002206Y005188D01*
X001911Y005140D02*
X001718Y005140D01*
X001718Y005092D02*
X001814Y004995D01*
X001911Y005092D01*
X001718Y005092D02*
X001718Y005285D01*
X001617Y005140D02*
X001568Y005188D01*
X001423Y005188D01*
X001423Y005285D02*
X001423Y004995D01*
X001568Y004995D01*
X001617Y005043D01*
X001617Y005140D01*
X001206Y005237D02*
X001206Y005043D01*
X001157Y004995D01*
X001012Y004995D01*
X001012Y005285D01*
X001157Y005285D01*
X001206Y005237D01*
X000911Y005237D02*
X000911Y005043D01*
X000863Y004995D01*
X000718Y004995D01*
X000718Y005285D01*
X000863Y005285D01*
X000911Y005237D01*
X000617Y005188D02*
X000617Y004995D01*
X000423Y004995D02*
X000423Y005188D01*
X000520Y005285D01*
X000617Y005188D01*
X003939Y004854D02*
X003939Y004805D01*
X003939Y004708D02*
X003939Y004467D01*
X003987Y004418D01*
X004035Y004418D01*
X004137Y004515D02*
X004137Y004805D01*
X004137Y004660D02*
X004330Y004660D01*
X004431Y004708D02*
X004431Y004563D01*
X004480Y004515D01*
X004528Y004563D01*
X004576Y004515D01*
X004625Y004563D01*
X004625Y004708D01*
X004726Y004708D02*
X004726Y004515D01*
X004871Y004515D01*
X004919Y004563D01*
X004919Y004708D01*
X005021Y004708D02*
X005166Y004708D01*
X005214Y004660D01*
X005166Y004612D01*
X005069Y004612D01*
X005021Y004563D01*
X005069Y004515D01*
X005214Y004515D01*
X005315Y004563D02*
X005364Y004612D01*
X005460Y004612D01*
X005509Y004660D01*
X005460Y004708D01*
X005315Y004708D01*
X005315Y004563D02*
X005364Y004515D01*
X005509Y004515D01*
X005803Y004515D02*
X005610Y004805D01*
X005904Y004805D02*
X005904Y004515D01*
X006050Y004515D01*
X006098Y004563D01*
X006098Y004660D01*
X006050Y004708D01*
X005904Y004708D01*
X006842Y004225D02*
X006890Y004177D01*
X006987Y004274D01*
X007035Y004225D01*
X006987Y003745D02*
X006890Y003745D01*
X006842Y003697D01*
X006842Y003600D01*
X006890Y003552D01*
X006890Y003648D01*
X006987Y003648D01*
X006987Y003552D01*
X006890Y003552D01*
X006842Y003503D02*
X006890Y003455D01*
X006987Y003455D01*
X007035Y003503D01*
X007035Y003697D01*
X006987Y003745D01*
X006842Y003265D02*
X007035Y003120D01*
X006842Y002975D01*
X006740Y002975D02*
X006547Y003120D01*
X006740Y003265D01*
X006151Y003265D02*
X006151Y003023D01*
X006103Y002975D01*
X006006Y002975D01*
X005856Y002975D02*
X005856Y003168D01*
X005856Y003120D02*
X005663Y003120D01*
X006842Y002737D02*
X006890Y002785D01*
X006987Y002785D01*
X007035Y002737D01*
X007035Y002543D01*
X006987Y002495D01*
X006890Y002495D01*
X006842Y002543D01*
X006890Y002305D02*
X007035Y002305D01*
X007035Y002015D01*
X006890Y002015D01*
X006842Y002063D01*
X006842Y002257D01*
X006890Y002305D01*
X006837Y001805D02*
X006789Y001757D01*
X006789Y001708D01*
X006837Y001660D01*
X006982Y001660D01*
X007083Y001660D02*
X007132Y001612D01*
X007277Y001612D01*
X007277Y001515D02*
X007277Y001805D01*
X007132Y001805D01*
X007083Y001757D01*
X007083Y001660D01*
X006982Y001515D02*
X006837Y001515D01*
X006789Y001563D01*
X006789Y001612D01*
X006837Y001660D01*
X006837Y001805D02*
X006982Y001805D01*
X006982Y001515D01*
X006688Y001515D02*
X006494Y001708D01*
X006494Y001757D01*
X006543Y001805D01*
X006639Y001805D01*
X006688Y001757D01*
X006688Y001515D02*
X006494Y001515D01*
X004277Y001515D02*
X004277Y001805D01*
X004132Y001805D01*
X004083Y001757D01*
X004083Y001660D01*
X004132Y001612D01*
X004277Y001612D01*
X003982Y001660D02*
X003789Y001660D01*
X003789Y001708D02*
X003789Y001515D01*
X003688Y001563D02*
X003639Y001515D01*
X003543Y001515D01*
X003494Y001563D01*
X003494Y001612D01*
X003543Y001660D01*
X003688Y001660D01*
X003688Y001563D01*
X003688Y001660D02*
X003591Y001757D01*
X003494Y001805D01*
X003789Y001708D02*
X003886Y001805D01*
X003982Y001708D01*
X003982Y001515D01*
X004330Y004515D02*
X004330Y004805D01*
D11*
X003048Y002880D02*
X003048Y002520D01*
X002868Y002520D01*
X002808Y002580D01*
X002808Y002700D01*
X002868Y002760D01*
X003048Y002760D01*
X003176Y002700D02*
X003417Y002700D01*
X003545Y002760D02*
X003725Y002760D01*
X003785Y002700D01*
X003785Y002580D01*
X003725Y002520D01*
X003545Y002520D01*
X003913Y002520D02*
X004093Y002520D01*
X004153Y002580D01*
X004153Y002700D01*
X004093Y002760D01*
X003913Y002760D01*
X002680Y002760D02*
X002680Y002580D01*
X002620Y002520D01*
X002440Y002520D01*
X002440Y002460D02*
X002500Y002400D01*
X002560Y002400D01*
X002440Y002460D02*
X002440Y002760D01*
X002312Y002700D02*
X002071Y002700D01*
X001943Y002700D02*
X001883Y002760D01*
X001703Y002760D01*
X001763Y002640D02*
X001883Y002640D01*
X001943Y002700D01*
X001943Y002520D02*
X001763Y002520D01*
X001703Y002580D01*
X001763Y002640D01*
X001575Y002580D02*
X001515Y002640D01*
X001335Y002640D01*
X001335Y002700D02*
X001335Y002520D01*
X001515Y002520D01*
X001575Y002580D01*
X001395Y002760D02*
X001335Y002700D01*
X001395Y002760D02*
X001515Y002760D01*
D12*
X000350Y000650D02*
X000600Y000400D01*
X001100Y000400D01*
X001350Y000650D01*
X001600Y000400D01*
X002100Y000400D01*
X002350Y000650D01*
X002350Y001150D01*
X002100Y001400D01*
X001600Y001400D01*
X001350Y001150D01*
X001100Y001400D01*
X000600Y001400D01*
X000350Y001150D01*
X000350Y000650D01*
X001350Y000650D02*
X001350Y001150D01*
X002350Y001150D02*
X002600Y001400D01*
X003100Y001400D01*
X003350Y001150D01*
X003600Y001400D01*
X004100Y001400D01*
X004350Y001150D01*
X004600Y001400D01*
X005100Y001400D01*
X005350Y001150D01*
X005350Y000650D01*
X005100Y000400D01*
X004600Y000400D01*
X004350Y000650D01*
X004350Y001150D01*
X004350Y000650D02*
X004100Y000400D01*
X003600Y000400D01*
X003350Y000650D01*
X003350Y001150D01*
X003350Y000650D02*
X003100Y000400D01*
X002600Y000400D01*
X002350Y000650D01*
X005350Y000650D02*
X005600Y000400D01*
X006100Y000400D01*
X006350Y000650D01*
X006600Y000400D01*
X007100Y000400D01*
X007350Y000650D01*
X007350Y001150D01*
X007100Y001400D01*
X006600Y001400D01*
X006350Y001150D01*
X006100Y001400D01*
X005600Y001400D01*
X005350Y001150D01*
X006350Y001150D02*
X006350Y000650D01*
X006100Y005400D02*
X005600Y005400D01*
X005350Y005650D01*
X005350Y006150D01*
X005600Y006400D01*
X006100Y006400D01*
X006350Y006150D01*
X006350Y005650D01*
X006100Y005400D01*
X006350Y005650D02*
X006600Y005400D01*
X007100Y005400D01*
X007350Y005650D01*
X007350Y006150D01*
X007100Y006400D01*
X006600Y006400D01*
X006350Y006150D01*
X005350Y006150D02*
X005100Y006400D01*
X004600Y006400D01*
X004350Y006150D01*
X004100Y006400D01*
X003600Y006400D01*
X003350Y006150D01*
X003100Y006400D01*
X002600Y006400D01*
X002350Y006150D01*
X002350Y005650D01*
X002600Y005400D01*
X003100Y005400D01*
X003350Y005650D01*
X003600Y005400D01*
X004100Y005400D01*
X004350Y005650D01*
X004600Y005400D01*
X005100Y005400D01*
X005350Y005650D01*
X004350Y005650D02*
X004350Y006150D01*
X003350Y006150D02*
X003350Y005650D01*
X002350Y005650D02*
X002100Y005400D01*
X001600Y005400D01*
X001350Y005650D01*
X001100Y005400D01*
X000600Y005400D01*
X000350Y005650D01*
X000350Y006150D01*
X000600Y006400D01*
X001100Y006400D01*
X001350Y006150D01*
X001350Y005650D01*
X001350Y006150D02*
X001600Y006400D01*
X002100Y006400D01*
X002350Y006150D01*
D13*
X002670Y003600D02*
X002659Y003625D01*
X002645Y003648D01*
X002627Y003669D01*
X002607Y003687D01*
X002585Y003703D01*
X002561Y003715D01*
X002535Y003723D01*
X002508Y003728D01*
X002481Y003729D01*
X002454Y003726D01*
X002428Y003720D01*
X002402Y003710D01*
X002379Y003696D01*
X002357Y003679D01*
X002339Y003660D01*
X002323Y003638D01*
X002310Y003614D01*
X002301Y003589D01*
X002295Y003562D01*
X002293Y003535D01*
X002295Y003508D01*
X002301Y003481D01*
X002310Y003456D01*
X002323Y003432D01*
X002339Y003410D01*
X002357Y003391D01*
X002379Y003374D01*
X002402Y003360D01*
X002428Y003350D01*
X002454Y003344D01*
X002481Y003341D01*
X002508Y003342D01*
X002535Y003347D01*
X002561Y003355D01*
X002585Y003367D01*
X002607Y003383D01*
X002627Y003401D01*
X002645Y003422D01*
X002659Y003445D01*
X002670Y003470D01*
X002395Y003513D02*
X002397Y003536D01*
X002403Y003558D01*
X002412Y003580D01*
X002425Y003599D01*
X002440Y003616D01*
X002458Y003630D01*
X002479Y003641D01*
X002501Y003649D01*
X002523Y003653D01*
X002547Y003653D01*
X002569Y003649D01*
X002591Y003641D01*
X002612Y003630D01*
X002630Y003616D01*
X002645Y003599D01*
X002658Y003580D01*
X002667Y003558D01*
X002673Y003536D01*
X002675Y003513D01*
X002673Y003490D01*
X002667Y003468D01*
X002658Y003446D01*
X002645Y003427D01*
X002630Y003410D01*
X002612Y003396D01*
X002591Y003385D01*
X002569Y003377D01*
X002547Y003373D01*
X002523Y003373D01*
X002501Y003377D01*
X002479Y003385D01*
X002458Y003396D01*
X002440Y003410D01*
X002425Y003427D01*
X002412Y003446D01*
X002403Y003468D01*
X002397Y003490D01*
X002395Y003513D01*
X002685Y003513D02*
X002687Y003536D01*
X002693Y003558D01*
X002702Y003580D01*
X002715Y003599D01*
X002730Y003616D01*
X002748Y003630D01*
X002769Y003641D01*
X002791Y003649D01*
X002813Y003653D01*
X002837Y003653D01*
X002859Y003649D01*
X002881Y003641D01*
X002902Y003630D01*
X002920Y003616D01*
X002935Y003599D01*
X002948Y003580D01*
X002957Y003558D01*
X002963Y003536D01*
X002965Y003513D01*
X002963Y003490D01*
X002957Y003468D01*
X002948Y003446D01*
X002935Y003427D01*
X002920Y003410D01*
X002902Y003396D01*
X002881Y003385D01*
X002859Y003377D01*
X002837Y003373D01*
X002813Y003373D01*
X002791Y003377D01*
X002769Y003385D01*
X002748Y003396D01*
X002730Y003410D01*
X002715Y003427D01*
X002702Y003446D01*
X002693Y003468D01*
X002687Y003490D01*
X002685Y003513D01*
X002680Y003470D02*
X002691Y003445D01*
X002705Y003422D01*
X002723Y003401D01*
X002743Y003383D01*
X002765Y003367D01*
X002789Y003355D01*
X002815Y003347D01*
X002842Y003342D01*
X002869Y003341D01*
X002896Y003344D01*
X002922Y003350D01*
X002948Y003360D01*
X002971Y003374D01*
X002993Y003391D01*
X003011Y003410D01*
X003027Y003432D01*
X003040Y003456D01*
X003049Y003481D01*
X003055Y003508D01*
X003057Y003535D01*
X003055Y003562D01*
X003049Y003589D01*
X003040Y003614D01*
X003027Y003638D01*
X003011Y003660D01*
X002993Y003679D01*
X002971Y003696D01*
X002948Y003710D01*
X002922Y003720D01*
X002896Y003726D01*
X002869Y003729D01*
X002842Y003728D01*
X002815Y003723D01*
X002789Y003715D01*
X002765Y003703D01*
X002743Y003687D01*
X002723Y003669D01*
X002705Y003648D01*
X002691Y003625D01*
X002680Y003600D01*
D14*
X003241Y003648D02*
X003761Y003648D01*
X003761Y003628D02*
X003477Y003587D01*
X003453Y003506D01*
X003420Y003428D01*
X003379Y003355D01*
X003555Y003130D01*
X003330Y002905D01*
X003241Y002976D01*
X003241Y003750D01*
X003238Y003842D01*
X003220Y003932D01*
X003187Y004018D01*
X003141Y004097D01*
X003082Y004168D01*
X003013Y004228D01*
X002935Y004276D01*
X002850Y004310D01*
X002760Y004330D01*
X002797Y004357D01*
X002826Y004392D01*
X002847Y004432D01*
X002858Y004476D01*
X002859Y004521D01*
X002850Y004566D01*
X002831Y004607D01*
X002803Y004643D01*
X002768Y004672D01*
X002727Y004692D01*
X002683Y004702D01*
X002637Y004702D01*
X002593Y004692D01*
X002552Y004672D01*
X002517Y004643D01*
X002489Y004607D01*
X002470Y004566D01*
X002461Y004521D01*
X002462Y004476D01*
X002473Y004432D01*
X002494Y004392D01*
X002523Y004357D01*
X002560Y004330D01*
X002560Y004320D01*
X002472Y004300D01*
X002389Y004266D01*
X002312Y004219D01*
X002244Y004160D01*
X002187Y004091D01*
X002141Y004013D01*
X002110Y003928D01*
X002092Y003840D01*
X002089Y003750D01*
X002089Y002956D01*
X002010Y002905D01*
X001795Y003120D01*
X001961Y003345D01*
X001907Y003457D01*
X001873Y003577D01*
X001579Y003628D01*
X001579Y003942D01*
X001873Y003973D01*
X001908Y004088D01*
X001961Y004195D01*
X001785Y004440D01*
X002010Y004655D01*
X002245Y004489D01*
X002352Y004547D01*
X002467Y004587D01*
X002508Y004871D01*
X002822Y004871D01*
X002863Y004567D01*
X002973Y004532D01*
X003075Y004479D01*
X003340Y004655D01*
X003545Y004450D01*
X003369Y004205D01*
X003427Y004098D01*
X003467Y003983D01*
X003761Y003952D01*
X003761Y003628D01*
X003761Y003746D02*
X003241Y003746D01*
X003237Y003845D02*
X003761Y003845D01*
X003761Y003943D02*
X003215Y003943D01*
X003173Y004042D02*
X003447Y004042D01*
X003405Y004140D02*
X003105Y004140D01*
X002995Y004239D02*
X003393Y004239D01*
X003464Y004337D02*
X002769Y004337D01*
X002848Y004436D02*
X003535Y004436D01*
X003461Y004534D02*
X003158Y004534D01*
X002966Y004534D02*
X002857Y004534D01*
X002855Y004633D02*
X002811Y004633D01*
X002841Y004731D02*
X002487Y004731D01*
X002473Y004633D02*
X002509Y004633D01*
X002463Y004534D02*
X002327Y004534D01*
X002181Y004534D02*
X001884Y004534D01*
X001788Y004436D02*
X002472Y004436D01*
X002551Y004337D02*
X001859Y004337D01*
X001930Y004239D02*
X002343Y004239D01*
X002227Y004140D02*
X001934Y004140D01*
X001893Y004042D02*
X002158Y004042D01*
X002115Y003943D02*
X001586Y003943D01*
X001579Y003845D02*
X002093Y003845D01*
X002089Y003746D02*
X001579Y003746D01*
X001579Y003648D02*
X002089Y003648D01*
X002089Y003549D02*
X001881Y003549D01*
X001910Y003451D02*
X002089Y003451D01*
X002089Y003352D02*
X001958Y003352D01*
X001894Y003254D02*
X002089Y003254D01*
X002089Y003155D02*
X001821Y003155D01*
X001859Y003057D02*
X002089Y003057D01*
X002089Y002958D02*
X001957Y002958D01*
X003241Y003057D02*
X003481Y003057D01*
X003383Y002958D02*
X003263Y002958D01*
X003241Y003155D02*
X003536Y003155D01*
X003458Y003254D02*
X003241Y003254D01*
X003241Y003352D02*
X003381Y003352D01*
X003430Y003451D02*
X003241Y003451D01*
X003241Y003549D02*
X003466Y003549D01*
X003362Y004633D02*
X003306Y004633D01*
X002828Y004830D02*
X002502Y004830D01*
X002042Y004633D02*
X001987Y004633D01*
D15*
X002510Y003190D02*
X002610Y003060D01*
X002830Y003060D01*
X002910Y003190D01*
X002510Y003190D01*
X002534Y003159D02*
X002891Y003159D01*
X002861Y003110D02*
X002572Y003110D01*
X002609Y003062D02*
X002831Y003062D01*
M02*
