G75*
%MOIN*%
%OFA0B0*%
%FSLAX24Y24*%
%IPPOS*%
%LPD*%
%AMOC8*
5,1,8,0,0,1.08239X$1,22.5*
%
%ADD10C,0.0030*%
%ADD11C,0.0040*%
%ADD12C,0.0050*%
%ADD13C,0.0060*%
D10*
X000520Y001265D02*
X000617Y001362D01*
X000617Y001555D01*
X000718Y001555D02*
X000863Y001555D01*
X000911Y001507D01*
X000911Y001313D01*
X000863Y001265D01*
X000718Y001265D01*
X000718Y001555D01*
X001012Y001555D02*
X001157Y001555D01*
X001206Y001507D01*
X001206Y001313D01*
X001157Y001265D01*
X001012Y001265D01*
X001012Y001555D01*
X001423Y001555D02*
X001568Y001555D01*
X001617Y001507D01*
X001617Y001410D01*
X001568Y001362D01*
X001423Y001362D01*
X001423Y001265D02*
X001423Y001555D01*
X001718Y001458D02*
X001814Y001555D01*
X001911Y001458D01*
X001911Y001265D01*
X001718Y001265D02*
X001718Y001458D01*
X001718Y001410D02*
X001911Y001410D01*
X002012Y001410D02*
X002206Y001410D01*
X002157Y001265D02*
X002157Y001555D01*
X002012Y001410D01*
X002423Y001362D02*
X002568Y001362D01*
X002617Y001410D01*
X002617Y001507D01*
X002568Y001555D01*
X002423Y001555D01*
X002423Y001265D01*
X002718Y001265D02*
X002718Y001458D01*
X002814Y001555D01*
X002911Y001458D01*
X002911Y001265D01*
X003012Y001313D02*
X003061Y001265D01*
X003157Y001265D01*
X003206Y001313D01*
X003206Y001410D01*
X003157Y001458D01*
X003109Y001458D01*
X003012Y001410D01*
X003012Y001555D01*
X003206Y001555D01*
X003423Y001555D02*
X003568Y001555D01*
X003617Y001507D01*
X003617Y001410D01*
X003568Y001362D01*
X003423Y001362D01*
X003423Y001265D02*
X003423Y001555D01*
X003718Y001458D02*
X003814Y001555D01*
X003911Y001458D01*
X003911Y001265D01*
X004012Y001313D02*
X004061Y001265D01*
X004157Y001265D01*
X004206Y001313D01*
X004206Y001362D01*
X004157Y001410D01*
X004012Y001410D01*
X004012Y001313D01*
X004012Y001410D02*
X004109Y001507D01*
X004206Y001555D01*
X004423Y001555D02*
X004568Y001555D01*
X004617Y001507D01*
X004617Y001410D01*
X004568Y001362D01*
X004423Y001362D01*
X004423Y001265D02*
X004423Y001555D01*
X004718Y001458D02*
X004814Y001555D01*
X004911Y001458D01*
X004911Y001265D01*
X005012Y001265D02*
X005012Y001313D01*
X005206Y001507D01*
X005206Y001555D01*
X005012Y001555D01*
X004911Y001410D02*
X004718Y001410D01*
X004718Y001458D02*
X004718Y001265D01*
X005423Y001265D02*
X005423Y001555D01*
X005568Y001555D01*
X005617Y001507D01*
X005617Y001410D01*
X005568Y001362D01*
X005423Y001362D01*
X005718Y001410D02*
X005863Y001410D01*
X005911Y001362D01*
X005911Y001313D01*
X005863Y001265D01*
X005718Y001265D01*
X005718Y001555D01*
X005863Y001555D01*
X005911Y001507D01*
X005911Y001458D01*
X005863Y001410D01*
X006012Y001507D02*
X006061Y001555D01*
X006157Y001555D01*
X006206Y001507D01*
X006206Y001458D01*
X006157Y001410D01*
X006206Y001362D01*
X006206Y001313D01*
X006157Y001265D01*
X006061Y001265D01*
X006012Y001313D01*
X006109Y001410D02*
X006157Y001410D01*
X006423Y001362D02*
X006568Y001362D01*
X006617Y001410D01*
X006617Y001507D01*
X006568Y001555D01*
X006423Y001555D01*
X006423Y001265D01*
X006718Y001265D02*
X006863Y001265D01*
X006911Y001313D01*
X006911Y001362D01*
X006863Y001410D01*
X006718Y001410D01*
X006863Y001410D02*
X006911Y001458D01*
X006911Y001507D01*
X006863Y001555D01*
X006718Y001555D01*
X006718Y001265D01*
X007012Y001265D02*
X007206Y001458D01*
X007206Y001507D01*
X007157Y001555D01*
X007061Y001555D01*
X007012Y001507D01*
X007012Y001265D02*
X007206Y001265D01*
X007254Y001965D02*
X007303Y001965D01*
X007303Y002013D01*
X007254Y002013D01*
X007254Y001965D01*
X007153Y002013D02*
X007105Y001965D01*
X007008Y001965D01*
X006960Y002013D01*
X007153Y002207D01*
X007153Y002013D01*
X006960Y002013D02*
X006960Y002207D01*
X007008Y002255D01*
X007105Y002255D01*
X007153Y002207D01*
X007402Y002158D02*
X007498Y002255D01*
X007498Y001965D01*
X007402Y001965D02*
X007595Y001965D01*
X006858Y001965D02*
X006762Y002062D01*
X006810Y002062D02*
X006858Y002110D01*
X006858Y002207D01*
X006810Y002255D01*
X006665Y002255D01*
X006665Y001965D01*
X006665Y002062D02*
X006810Y002062D01*
X006155Y002041D02*
X005962Y002041D01*
X005865Y002138D01*
X005962Y002234D01*
X006155Y002234D01*
X006010Y002234D02*
X006010Y002041D01*
X005865Y002336D02*
X005865Y002529D01*
X005865Y002432D02*
X006155Y002432D01*
X005865Y002630D02*
X005865Y002824D01*
X005865Y002925D02*
X005865Y003022D01*
X005865Y002973D02*
X006155Y002973D01*
X006155Y002925D02*
X006155Y003022D01*
X006155Y003121D02*
X005865Y003121D01*
X006155Y003315D01*
X005865Y003315D01*
X005865Y003416D02*
X005913Y003416D01*
X006010Y003513D01*
X006155Y003513D01*
X006010Y003513D02*
X005913Y003609D01*
X005865Y003609D01*
X005962Y003711D02*
X005865Y003807D01*
X006155Y003807D01*
X006155Y003711D02*
X006155Y003904D01*
X006107Y004005D02*
X006155Y004054D01*
X006155Y004150D01*
X006107Y004199D01*
X006058Y004199D01*
X006010Y004150D01*
X006010Y004005D01*
X006107Y004005D01*
X006010Y004005D02*
X005913Y004102D01*
X005865Y004199D01*
X005913Y004300D02*
X005865Y004348D01*
X005865Y004445D01*
X005913Y004493D01*
X005962Y004493D01*
X006155Y004300D01*
X006155Y004493D01*
X006010Y004594D02*
X006010Y004788D01*
X006155Y004740D02*
X005865Y004740D01*
X006010Y004594D01*
X006448Y004208D02*
X006544Y004305D01*
X006544Y004015D01*
X006448Y004015D02*
X006641Y004015D01*
X006742Y004063D02*
X006936Y004257D01*
X006936Y004063D01*
X006887Y004015D01*
X006791Y004015D01*
X006742Y004063D01*
X006742Y004257D01*
X006791Y004305D01*
X006887Y004305D01*
X006936Y004257D01*
X007037Y004305D02*
X007037Y004015D01*
X007037Y004112D02*
X007182Y004015D01*
X007037Y004112D02*
X007182Y004208D01*
X007132Y005145D02*
X007083Y005193D01*
X007083Y005290D01*
X007132Y005338D01*
X007277Y005338D01*
X007277Y005435D02*
X007277Y005145D01*
X007132Y005145D01*
X006982Y005145D02*
X006837Y005145D01*
X006789Y005193D01*
X006789Y005242D01*
X006837Y005290D01*
X006982Y005290D01*
X006837Y005290D02*
X006789Y005338D01*
X006789Y005387D01*
X006837Y005435D01*
X006982Y005435D01*
X006982Y005145D01*
X006688Y005242D02*
X006591Y005145D01*
X006591Y005435D01*
X006688Y005435D02*
X006494Y005435D01*
X006277Y005435D02*
X006277Y005145D01*
X006132Y005145D01*
X006083Y005193D01*
X006083Y005290D01*
X006132Y005338D01*
X006277Y005338D01*
X005982Y005290D02*
X005837Y005290D01*
X005789Y005338D01*
X005789Y005387D01*
X005837Y005435D01*
X005982Y005435D01*
X005982Y005145D01*
X005837Y005145D01*
X005789Y005193D01*
X005789Y005242D01*
X005837Y005290D01*
X005688Y005387D02*
X005688Y005193D01*
X005639Y005145D01*
X005543Y005145D01*
X005494Y005193D01*
X005688Y005387D01*
X005639Y005435D01*
X005543Y005435D01*
X005494Y005387D01*
X005494Y005193D01*
X005277Y005145D02*
X005132Y005145D01*
X005083Y005193D01*
X005083Y005290D01*
X005132Y005338D01*
X005277Y005338D01*
X005277Y005435D02*
X005277Y005145D01*
X004982Y005242D02*
X004886Y005145D01*
X004789Y005242D01*
X004789Y005435D01*
X004688Y005387D02*
X004494Y005193D01*
X004494Y005387D01*
X004543Y005435D01*
X004639Y005435D01*
X004688Y005387D01*
X004688Y005193D01*
X004639Y005145D01*
X004543Y005145D01*
X004494Y005193D01*
X004277Y005145D02*
X004132Y005145D01*
X004083Y005193D01*
X004083Y005290D01*
X004132Y005338D01*
X004277Y005338D01*
X004277Y005435D02*
X004277Y005145D01*
X003982Y005242D02*
X003886Y005145D01*
X003789Y005242D01*
X003789Y005435D01*
X003688Y005435D02*
X003494Y005435D01*
X003591Y005435D02*
X003591Y005145D01*
X003688Y005242D01*
X003789Y005290D02*
X003982Y005290D01*
X003982Y005242D02*
X003982Y005435D01*
X003277Y005435D02*
X003277Y005145D01*
X003132Y005145D01*
X003083Y005193D01*
X003083Y005290D01*
X003132Y005338D01*
X003277Y005338D01*
X002982Y005290D02*
X002789Y005290D01*
X002789Y005242D02*
X002789Y005435D01*
X002688Y005435D02*
X002494Y005242D01*
X002494Y005193D01*
X002543Y005145D01*
X002639Y005145D01*
X002688Y005193D01*
X002789Y005242D02*
X002886Y005145D01*
X002982Y005242D01*
X002982Y005435D01*
X002688Y005435D02*
X002494Y005435D01*
X002277Y005435D02*
X002277Y005145D01*
X002132Y005145D01*
X002083Y005193D01*
X002083Y005290D01*
X002132Y005338D01*
X002277Y005338D01*
X001982Y005290D02*
X001789Y005290D01*
X001789Y005242D02*
X001789Y005435D01*
X001688Y005387D02*
X001639Y005435D01*
X001543Y005435D01*
X001494Y005387D01*
X001494Y005338D01*
X001543Y005290D01*
X001591Y005290D01*
X001543Y005290D02*
X001494Y005242D01*
X001494Y005193D01*
X001543Y005145D01*
X001639Y005145D01*
X001688Y005193D01*
X001789Y005242D02*
X001886Y005145D01*
X001982Y005242D01*
X001982Y005435D01*
X001277Y005387D02*
X001277Y005193D01*
X001229Y005145D01*
X001132Y005145D01*
X001083Y005193D01*
X001083Y005290D02*
X001180Y005290D01*
X001083Y005290D02*
X001083Y005387D01*
X001132Y005435D01*
X001229Y005435D01*
X001277Y005387D01*
X000982Y005435D02*
X000982Y005145D01*
X000789Y005435D01*
X000789Y005145D01*
X000688Y005145D02*
X000543Y005145D01*
X000494Y005193D01*
X000494Y005387D01*
X000543Y005435D01*
X000688Y005435D01*
X000688Y005145D01*
X000666Y004655D02*
X000763Y004655D01*
X000811Y004607D01*
X000618Y004413D01*
X000666Y004365D01*
X000763Y004365D01*
X000811Y004413D01*
X000811Y004607D01*
X000912Y004510D02*
X001057Y004510D01*
X001106Y004462D01*
X001106Y004413D01*
X001057Y004365D01*
X000961Y004365D01*
X000912Y004413D01*
X000912Y004510D01*
X001009Y004607D01*
X001106Y004655D01*
X000666Y004655D02*
X000618Y004607D01*
X000618Y004413D01*
X000517Y004365D02*
X000323Y004365D01*
X000420Y004365D02*
X000420Y004655D01*
X000323Y004558D01*
X001223Y004208D02*
X001320Y004305D01*
X001320Y004015D01*
X001223Y004015D02*
X001417Y004015D01*
X001518Y004063D02*
X001711Y004257D01*
X001711Y004063D01*
X001663Y004015D01*
X001566Y004015D01*
X001518Y004063D01*
X001518Y004257D01*
X001566Y004305D01*
X001663Y004305D01*
X001711Y004257D01*
X001812Y004160D02*
X002006Y004160D01*
X001957Y004015D02*
X001957Y004305D01*
X001812Y004160D01*
X004789Y005290D02*
X004982Y005290D01*
X004982Y005242D02*
X004982Y005435D01*
X005865Y002727D02*
X006155Y002727D01*
X003911Y001410D02*
X003718Y001410D01*
X003718Y001458D02*
X003718Y001265D01*
X002911Y001410D02*
X002718Y001410D01*
X000520Y001265D02*
X000423Y001362D01*
X000423Y001555D01*
D11*
X007320Y003680D02*
X007380Y003620D01*
X007500Y003620D01*
X007560Y003680D01*
X007560Y003980D01*
X007688Y003980D02*
X007868Y003980D01*
X007928Y003920D01*
X007928Y003800D01*
X007868Y003740D01*
X007688Y003740D01*
X007688Y003620D02*
X007688Y003980D01*
X008056Y003980D02*
X008236Y003980D01*
X008296Y003920D01*
X008296Y003680D01*
X008236Y003620D01*
X008056Y003620D01*
X008056Y003980D01*
X008424Y003980D02*
X008545Y003980D01*
X008485Y003980D02*
X008485Y003620D01*
X008545Y003620D02*
X008424Y003620D01*
X007320Y003680D02*
X007320Y003980D01*
X007625Y004670D02*
X007745Y004670D01*
X007805Y004730D01*
X007805Y004850D01*
X007685Y004850D01*
X007565Y004730D02*
X007625Y004670D01*
X007565Y004730D02*
X007565Y004970D01*
X007625Y005030D01*
X007745Y005030D01*
X007805Y004970D01*
X007933Y005030D02*
X008174Y004670D01*
X008174Y005030D01*
X008302Y005030D02*
X008482Y005030D01*
X008542Y004970D01*
X008542Y004730D01*
X008482Y004670D01*
X008302Y004670D01*
X008302Y005030D01*
X007933Y005030D02*
X007933Y004670D01*
X007933Y005670D02*
X008114Y005670D01*
X008174Y005730D01*
X008174Y005970D01*
X008114Y006030D01*
X007933Y006030D01*
X007933Y005670D01*
X007805Y005790D02*
X007805Y006030D01*
X007565Y006030D02*
X007565Y005790D01*
X007685Y005670D01*
X007805Y005790D01*
X008302Y005670D02*
X008482Y005670D01*
X008542Y005730D01*
X008542Y005970D01*
X008482Y006030D01*
X008302Y006030D01*
X008302Y005670D01*
X009870Y005514D02*
X010050Y005334D01*
X010050Y005575D01*
X010230Y005514D02*
X009870Y005514D01*
X009930Y005206D02*
X009870Y005146D01*
X009870Y005026D01*
X009930Y004966D01*
X009870Y004838D02*
X009930Y004718D01*
X010050Y004598D01*
X010050Y004778D01*
X010110Y004838D01*
X010170Y004838D01*
X010230Y004778D01*
X010230Y004658D01*
X010170Y004598D01*
X010050Y004598D01*
X010230Y004470D02*
X010230Y004229D01*
X010230Y004350D02*
X009870Y004350D01*
X009990Y004229D01*
X009990Y004101D02*
X010290Y004101D01*
X010350Y004041D01*
X010350Y003981D01*
X010230Y003921D02*
X010230Y004101D01*
X010230Y003921D02*
X010170Y003861D01*
X009990Y003861D01*
X010050Y003733D02*
X010230Y003733D01*
X010050Y003733D02*
X009990Y003673D01*
X009990Y003493D01*
X010230Y003493D01*
X010230Y003367D02*
X010230Y003247D01*
X010230Y003307D02*
X009990Y003307D01*
X009990Y003247D01*
X009870Y003307D02*
X009810Y003307D01*
X009870Y003119D02*
X009870Y002879D01*
X009870Y002999D02*
X010230Y002999D01*
X010110Y002751D02*
X010050Y002751D01*
X009990Y002691D01*
X009990Y002571D01*
X010050Y002511D01*
X010170Y002511D01*
X010230Y002571D01*
X010230Y002691D01*
X010110Y002751D02*
X010110Y002511D01*
X010110Y002382D02*
X010050Y002382D01*
X009990Y002322D01*
X009990Y002202D01*
X010050Y002142D01*
X010170Y002142D01*
X010230Y002202D01*
X010230Y002322D01*
X010110Y002382D02*
X010110Y002142D01*
X010230Y002014D02*
X010230Y001774D01*
X010170Y001774D01*
X009930Y002014D01*
X009870Y002014D01*
X009870Y001774D01*
X010050Y001646D02*
X010110Y001646D01*
X010110Y001406D01*
X010170Y001406D02*
X010050Y001406D01*
X009990Y001466D01*
X009990Y001586D01*
X010050Y001646D01*
X010230Y001586D02*
X010230Y001466D01*
X010170Y001406D01*
X010110Y001278D02*
X010050Y001278D01*
X009990Y001217D01*
X009990Y001097D01*
X010050Y001037D01*
X010170Y001037D01*
X010230Y001097D01*
X010230Y001217D01*
X010110Y001278D02*
X010110Y001037D01*
X010230Y004966D02*
X009990Y005206D01*
X009930Y005206D01*
X010230Y005206D02*
X010230Y004966D01*
D12*
X008425Y002754D02*
X008350Y002679D01*
X008050Y002679D01*
X008125Y002604D02*
X008125Y002754D01*
X008559Y002637D02*
X008756Y002637D01*
X008559Y002637D02*
X008559Y001063D01*
X008756Y001063D01*
X008425Y000839D02*
X008125Y000839D01*
X008275Y000839D02*
X008125Y000989D01*
X008125Y001064D01*
X008200Y001223D02*
X008125Y001298D01*
X008125Y001448D01*
X008200Y001523D01*
X008275Y001523D01*
X008275Y001223D01*
X008350Y001223D02*
X008200Y001223D01*
X008350Y001223D02*
X008425Y001298D01*
X008425Y001448D01*
X008425Y001683D02*
X008425Y001908D01*
X008350Y001983D01*
X008275Y001908D01*
X008275Y001758D01*
X008200Y001683D01*
X008125Y001758D01*
X008125Y001983D01*
X008200Y002144D02*
X008125Y002219D01*
X008125Y002369D01*
X008200Y002444D01*
X008275Y002444D01*
X008275Y002144D01*
X008350Y002144D02*
X008200Y002144D01*
X008350Y002144D02*
X008425Y002219D01*
X008425Y002369D01*
X008796Y001850D02*
X008798Y001887D01*
X008804Y001924D01*
X008813Y001959D01*
X008827Y001994D01*
X008843Y002027D01*
X008864Y002058D01*
X008887Y002087D01*
X008913Y002113D01*
X008942Y002136D01*
X008973Y002157D01*
X009006Y002173D01*
X009041Y002187D01*
X009076Y002196D01*
X009113Y002202D01*
X009150Y002204D01*
X009187Y002202D01*
X009224Y002196D01*
X009259Y002187D01*
X009294Y002173D01*
X009327Y002157D01*
X009358Y002136D01*
X009387Y002113D01*
X009413Y002087D01*
X009436Y002058D01*
X009457Y002027D01*
X009473Y001994D01*
X009487Y001959D01*
X009496Y001924D01*
X009502Y001887D01*
X009504Y001850D01*
X009502Y001813D01*
X009496Y001776D01*
X009487Y001741D01*
X009473Y001706D01*
X009457Y001673D01*
X009436Y001642D01*
X009413Y001613D01*
X009387Y001587D01*
X009358Y001564D01*
X009327Y001543D01*
X009294Y001527D01*
X009259Y001513D01*
X009224Y001504D01*
X009187Y001498D01*
X009150Y001496D01*
X009113Y001498D01*
X009076Y001504D01*
X009041Y001513D01*
X009006Y001527D01*
X008973Y001543D01*
X008942Y001564D01*
X008913Y001587D01*
X008887Y001613D01*
X008864Y001642D01*
X008843Y001673D01*
X008827Y001706D01*
X008813Y001741D01*
X008804Y001776D01*
X008798Y001813D01*
X008796Y001850D01*
X009544Y001063D02*
X009741Y001063D01*
X009741Y002637D01*
X009544Y002637D01*
X005684Y002838D02*
X002216Y002838D01*
X002334Y002917D02*
X002570Y002917D01*
X002452Y003114D01*
X002334Y002917D01*
D13*
X002137Y002582D02*
X002138Y002565D01*
X002143Y002548D01*
X002150Y002533D01*
X002160Y002519D01*
X002172Y002507D01*
X002186Y002497D01*
X002201Y002490D01*
X002218Y002485D01*
X002235Y002484D01*
X002137Y002582D02*
X002137Y004118D01*
X002138Y004135D01*
X002143Y004152D01*
X002150Y004167D01*
X002160Y004181D01*
X002172Y004193D01*
X002186Y004203D01*
X002201Y004210D01*
X002218Y004215D01*
X002235Y004216D01*
X005665Y004216D02*
X005682Y004215D01*
X005699Y004210D01*
X005714Y004203D01*
X005728Y004193D01*
X005740Y004181D01*
X005750Y004167D01*
X005757Y004152D01*
X005762Y004135D01*
X005763Y004118D01*
X005763Y002582D01*
X005762Y002565D01*
X005757Y002548D01*
X005750Y002533D01*
X005740Y002519D01*
X005728Y002507D01*
X005714Y002497D01*
X005699Y002490D01*
X005682Y002485D01*
X005665Y002484D01*
X008650Y003600D02*
X008900Y003350D01*
X009400Y003350D01*
X009650Y003600D01*
X009650Y004100D01*
X009400Y004350D01*
X009650Y004600D01*
X009650Y005100D01*
X009400Y005350D01*
X009650Y005600D01*
X009650Y006100D01*
X009400Y006350D01*
X008900Y006350D01*
X008650Y006100D01*
X008650Y005600D01*
X008900Y005350D01*
X009400Y005350D01*
X008900Y005350D02*
X008650Y005100D01*
X008650Y004600D01*
X008900Y004350D01*
X009400Y004350D01*
X008900Y004350D02*
X008650Y004100D01*
X008650Y003600D01*
M02*
