G75*
%MOIN*%
%OFA0B0*%
%FSLAX24Y24*%
%IPPOS*%
%LPD*%
%AMOC8*
5,1,8,0,0,1.08239X$1,22.5*
%
%ADD10OC8,0.0600*%
%ADD11C,0.0100*%
%ADD12C,0.0270*%
%ADD13C,0.0160*%
D10*
X000850Y000850D03*
X001850Y000850D03*
X002850Y000850D03*
X003850Y000850D03*
X004850Y000850D03*
X005850Y000850D03*
X006850Y000850D03*
X009150Y003850D03*
X009150Y004850D03*
X009150Y005850D03*
X006850Y005850D03*
X005850Y005850D03*
X004850Y005850D03*
X003850Y005850D03*
X002850Y005850D03*
X001850Y005850D03*
X000850Y005850D03*
D11*
X000665Y000347D02*
X009935Y000347D01*
X009888Y000300D02*
X000712Y000300D01*
X000300Y000712D01*
X000300Y005988D01*
X000712Y006400D01*
X009888Y006400D01*
X010300Y005988D01*
X010300Y000712D01*
X009888Y000300D01*
X010033Y000446D02*
X007082Y000446D01*
X007036Y000400D02*
X007300Y000664D01*
X007300Y001036D01*
X007036Y001300D01*
X006664Y001300D01*
X006400Y001036D01*
X006400Y000664D01*
X006664Y000400D01*
X007036Y000400D01*
X007180Y000544D02*
X010132Y000544D01*
X010230Y000643D02*
X007279Y000643D01*
X007300Y000741D02*
X010300Y000741D01*
X010300Y000840D02*
X007300Y000840D01*
X007300Y000938D02*
X010300Y000938D01*
X010300Y001037D02*
X007300Y001037D01*
X007201Y001135D02*
X010300Y001135D01*
X010300Y001234D02*
X007103Y001234D01*
X006597Y001234D02*
X006103Y001234D01*
X006036Y001300D02*
X005664Y001300D01*
X005400Y001036D01*
X005400Y000664D01*
X005664Y000400D01*
X006036Y000400D01*
X006300Y000664D01*
X006300Y001036D01*
X006036Y001300D01*
X006201Y001135D02*
X006499Y001135D01*
X006400Y001037D02*
X006300Y001037D01*
X006300Y000938D02*
X006400Y000938D01*
X006400Y000840D02*
X006300Y000840D01*
X006300Y000741D02*
X006400Y000741D01*
X006421Y000643D02*
X006279Y000643D01*
X006180Y000544D02*
X006520Y000544D01*
X006618Y000446D02*
X006082Y000446D01*
X005618Y000446D02*
X005082Y000446D01*
X005036Y000400D02*
X005300Y000664D01*
X005300Y001036D01*
X005036Y001300D01*
X004664Y001300D01*
X004400Y001036D01*
X004400Y000664D01*
X004664Y000400D01*
X005036Y000400D01*
X005180Y000544D02*
X005520Y000544D01*
X005421Y000643D02*
X005279Y000643D01*
X005300Y000741D02*
X005400Y000741D01*
X005400Y000840D02*
X005300Y000840D01*
X005300Y000938D02*
X005400Y000938D01*
X005400Y001037D02*
X005300Y001037D01*
X005201Y001135D02*
X005499Y001135D01*
X005597Y001234D02*
X005103Y001234D01*
X004597Y001234D02*
X004103Y001234D01*
X004036Y001300D02*
X003664Y001300D01*
X003400Y001036D01*
X003400Y000664D01*
X003664Y000400D01*
X004036Y000400D01*
X004300Y000664D01*
X004300Y001036D01*
X004036Y001300D01*
X004201Y001135D02*
X004499Y001135D01*
X004400Y001037D02*
X004300Y001037D01*
X004300Y000938D02*
X004400Y000938D01*
X004400Y000840D02*
X004300Y000840D01*
X004300Y000741D02*
X004400Y000741D01*
X004421Y000643D02*
X004279Y000643D01*
X004180Y000544D02*
X004520Y000544D01*
X004618Y000446D02*
X004082Y000446D01*
X003618Y000446D02*
X003082Y000446D01*
X003036Y000400D02*
X003300Y000664D01*
X003300Y001036D01*
X003036Y001300D01*
X002664Y001300D01*
X002400Y001036D01*
X002400Y000664D01*
X002664Y000400D01*
X003036Y000400D01*
X003180Y000544D02*
X003520Y000544D01*
X003421Y000643D02*
X003279Y000643D01*
X003300Y000741D02*
X003400Y000741D01*
X003400Y000840D02*
X003300Y000840D01*
X003300Y000938D02*
X003400Y000938D01*
X003400Y001037D02*
X003300Y001037D01*
X003201Y001135D02*
X003499Y001135D01*
X003597Y001234D02*
X003103Y001234D01*
X002597Y001234D02*
X002103Y001234D01*
X002036Y001300D02*
X001664Y001300D01*
X001400Y001036D01*
X001400Y000664D01*
X001664Y000400D01*
X002036Y000400D01*
X002300Y000664D01*
X002300Y001036D01*
X002036Y001300D01*
X002201Y001135D02*
X002499Y001135D01*
X002400Y001037D02*
X002300Y001037D01*
X002300Y000938D02*
X002400Y000938D01*
X002400Y000840D02*
X002300Y000840D01*
X002300Y000741D02*
X002400Y000741D01*
X002421Y000643D02*
X002279Y000643D01*
X002180Y000544D02*
X002520Y000544D01*
X002618Y000446D02*
X002082Y000446D01*
X001618Y000446D02*
X001082Y000446D01*
X001036Y000400D02*
X001300Y000664D01*
X001300Y001036D01*
X001036Y001300D01*
X000664Y001300D01*
X000400Y001036D01*
X000400Y000664D01*
X000664Y000400D01*
X001036Y000400D01*
X001180Y000544D02*
X001520Y000544D01*
X001421Y000643D02*
X001279Y000643D01*
X001300Y000741D02*
X001400Y000741D01*
X001400Y000840D02*
X001300Y000840D01*
X001300Y000938D02*
X001400Y000938D01*
X001400Y001037D02*
X001300Y001037D01*
X001201Y001135D02*
X001499Y001135D01*
X001597Y001234D02*
X001103Y001234D01*
X000597Y001234D02*
X000300Y001234D01*
X000300Y001332D02*
X010300Y001332D01*
X010300Y001431D02*
X000300Y001431D01*
X000300Y001529D02*
X010300Y001529D01*
X010300Y001628D02*
X000300Y001628D01*
X000300Y001726D02*
X010300Y001726D01*
X010300Y001825D02*
X000300Y001825D01*
X000300Y001923D02*
X010300Y001923D01*
X010300Y002022D02*
X000300Y002022D01*
X000300Y002120D02*
X010300Y002120D01*
X010300Y002219D02*
X000300Y002219D01*
X000300Y002317D02*
X010300Y002317D01*
X010300Y002416D02*
X000300Y002416D01*
X000300Y002514D02*
X010300Y002514D01*
X010300Y002613D02*
X000300Y002613D01*
X000300Y002711D02*
X010300Y002711D01*
X010300Y002810D02*
X000300Y002810D01*
X000300Y002908D02*
X010300Y002908D01*
X010300Y003007D02*
X007907Y003007D01*
X007911Y003008D02*
X007992Y003089D01*
X008035Y003193D01*
X008035Y003307D01*
X007992Y003411D01*
X007980Y003423D01*
X007980Y004277D01*
X007992Y004289D01*
X008035Y004393D01*
X008035Y004507D01*
X007992Y004611D01*
X007911Y004692D01*
X007807Y004735D01*
X007693Y004735D01*
X007589Y004692D01*
X007508Y004611D01*
X007465Y004507D01*
X007465Y004393D01*
X007508Y004289D01*
X007520Y004277D01*
X007520Y003423D01*
X007508Y003411D01*
X007465Y003307D01*
X007465Y003193D01*
X007508Y003089D01*
X007589Y003008D01*
X007693Y002965D01*
X007807Y002965D01*
X007911Y003008D01*
X007998Y003105D02*
X010300Y003105D01*
X010300Y003204D02*
X008035Y003204D01*
X008035Y003302D02*
X010300Y003302D01*
X010300Y003401D02*
X009337Y003401D01*
X009336Y003400D02*
X009600Y003664D01*
X009600Y004036D01*
X009336Y004300D01*
X008964Y004300D01*
X008700Y004036D01*
X008700Y003664D01*
X008964Y003400D01*
X009336Y003400D01*
X009435Y003499D02*
X010300Y003499D01*
X010300Y003598D02*
X009534Y003598D01*
X009600Y003696D02*
X010300Y003696D01*
X010300Y003795D02*
X009600Y003795D01*
X009600Y003893D02*
X010300Y003893D01*
X010300Y003992D02*
X009600Y003992D01*
X009546Y004090D02*
X010300Y004090D01*
X010300Y004189D02*
X009448Y004189D01*
X009349Y004287D02*
X010300Y004287D01*
X010300Y004386D02*
X008032Y004386D01*
X008035Y004484D02*
X008880Y004484D01*
X008964Y004400D02*
X008700Y004664D01*
X008700Y004800D01*
X009100Y004800D01*
X009100Y004900D01*
X009100Y005300D01*
X008964Y005300D01*
X008700Y005036D01*
X008700Y004900D01*
X009100Y004900D01*
X009200Y004900D01*
X009200Y005300D01*
X009336Y005300D01*
X009600Y005036D01*
X009600Y004900D01*
X009200Y004900D01*
X009200Y004800D01*
X009600Y004800D01*
X009600Y004664D01*
X009336Y004400D01*
X009200Y004400D01*
X009200Y004800D01*
X009100Y004800D01*
X009100Y004400D01*
X008964Y004400D01*
X008951Y004287D02*
X007990Y004287D01*
X007980Y004189D02*
X008852Y004189D01*
X008754Y004090D02*
X007980Y004090D01*
X007980Y003992D02*
X008700Y003992D01*
X008700Y003893D02*
X007980Y003893D01*
X007980Y003795D02*
X008700Y003795D01*
X008700Y003696D02*
X007980Y003696D01*
X007980Y003598D02*
X008766Y003598D01*
X008865Y003499D02*
X007980Y003499D01*
X007996Y003401D02*
X008963Y003401D01*
X007593Y003007D02*
X000300Y003007D01*
X000300Y003105D02*
X007502Y003105D01*
X007465Y003204D02*
X000300Y003204D01*
X000300Y003302D02*
X007465Y003302D01*
X007504Y003401D02*
X000300Y003401D01*
X000300Y003499D02*
X007520Y003499D01*
X007520Y003598D02*
X000300Y003598D01*
X000300Y003696D02*
X007520Y003696D01*
X007520Y003795D02*
X000300Y003795D01*
X000300Y003893D02*
X007520Y003893D01*
X007520Y003992D02*
X000300Y003992D01*
X000300Y004090D02*
X007520Y004090D01*
X007520Y004189D02*
X000300Y004189D01*
X000300Y004287D02*
X007510Y004287D01*
X007468Y004386D02*
X000300Y004386D01*
X000300Y004484D02*
X007465Y004484D01*
X007496Y004583D02*
X000300Y004583D01*
X000300Y004681D02*
X007578Y004681D01*
X007922Y004681D02*
X008700Y004681D01*
X008781Y004583D02*
X008004Y004583D01*
X008700Y004780D02*
X000300Y004780D01*
X000300Y004878D02*
X009100Y004878D01*
X009100Y004780D02*
X009200Y004780D01*
X009200Y004878D02*
X010300Y004878D01*
X010300Y004780D02*
X009600Y004780D01*
X009600Y004681D02*
X010300Y004681D01*
X010300Y004583D02*
X009519Y004583D01*
X009420Y004484D02*
X010300Y004484D01*
X010300Y004977D02*
X009600Y004977D01*
X009561Y005075D02*
X010300Y005075D01*
X010300Y005174D02*
X009463Y005174D01*
X009364Y005272D02*
X010300Y005272D01*
X010300Y005371D02*
X000300Y005371D01*
X000300Y005469D02*
X000595Y005469D01*
X000664Y005400D02*
X000800Y005400D01*
X000800Y005800D01*
X000900Y005800D01*
X000900Y005900D01*
X001300Y005900D01*
X001300Y006036D01*
X001036Y006300D01*
X000900Y006300D01*
X000900Y005900D01*
X000800Y005900D01*
X000800Y006300D01*
X000664Y006300D01*
X000400Y006036D01*
X000400Y005900D01*
X000800Y005900D01*
X000800Y005800D01*
X000400Y005800D01*
X000400Y005664D01*
X000664Y005400D01*
X000800Y005469D02*
X000900Y005469D01*
X000900Y005400D02*
X001036Y005400D01*
X001300Y005664D01*
X001300Y005800D01*
X000900Y005800D01*
X000900Y005400D01*
X001105Y005469D02*
X001595Y005469D01*
X001664Y005400D02*
X002036Y005400D01*
X002300Y005664D01*
X002300Y006036D01*
X002036Y006300D01*
X001664Y006300D01*
X001400Y006036D01*
X001400Y005664D01*
X001664Y005400D01*
X001496Y005568D02*
X001204Y005568D01*
X001300Y005666D02*
X001400Y005666D01*
X001400Y005765D02*
X001300Y005765D01*
X001400Y005863D02*
X000900Y005863D01*
X000900Y005765D02*
X000800Y005765D01*
X000800Y005863D02*
X000300Y005863D01*
X000300Y005765D02*
X000400Y005765D01*
X000400Y005666D02*
X000300Y005666D01*
X000300Y005568D02*
X000496Y005568D01*
X000800Y005568D02*
X000900Y005568D01*
X000900Y005666D02*
X000800Y005666D01*
X000800Y005962D02*
X000900Y005962D01*
X000900Y006060D02*
X000800Y006060D01*
X000800Y006159D02*
X000900Y006159D01*
X000900Y006257D02*
X000800Y006257D01*
X000668Y006356D02*
X009932Y006356D01*
X010031Y006257D02*
X009379Y006257D01*
X009336Y006300D02*
X008964Y006300D01*
X008700Y006036D01*
X008700Y005664D01*
X008964Y005400D01*
X009336Y005400D01*
X009600Y005664D01*
X009600Y006036D01*
X009336Y006300D01*
X009478Y006159D02*
X010129Y006159D01*
X010228Y006060D02*
X009576Y006060D01*
X009600Y005962D02*
X010300Y005962D01*
X010300Y005863D02*
X009600Y005863D01*
X009600Y005765D02*
X010300Y005765D01*
X010300Y005666D02*
X009600Y005666D01*
X009504Y005568D02*
X010300Y005568D01*
X010300Y005469D02*
X009405Y005469D01*
X009200Y005272D02*
X009100Y005272D01*
X009100Y005174D02*
X009200Y005174D01*
X009200Y005075D02*
X009100Y005075D01*
X009100Y004977D02*
X009200Y004977D01*
X008936Y005272D02*
X000300Y005272D01*
X000300Y005174D02*
X008837Y005174D01*
X008739Y005075D02*
X000300Y005075D01*
X000300Y004977D02*
X008700Y004977D01*
X009100Y004681D02*
X009200Y004681D01*
X009200Y004583D02*
X009100Y004583D01*
X009100Y004484D02*
X009200Y004484D01*
X008895Y005469D02*
X007105Y005469D01*
X007036Y005400D02*
X007300Y005664D01*
X007300Y006036D01*
X007036Y006300D01*
X006664Y006300D01*
X006400Y006036D01*
X006400Y005664D01*
X006664Y005400D01*
X007036Y005400D01*
X007204Y005568D02*
X008796Y005568D01*
X008700Y005666D02*
X007300Y005666D01*
X007300Y005765D02*
X008700Y005765D01*
X008700Y005863D02*
X007300Y005863D01*
X007300Y005962D02*
X008700Y005962D01*
X008724Y006060D02*
X007276Y006060D01*
X007178Y006159D02*
X008822Y006159D01*
X008921Y006257D02*
X007079Y006257D01*
X006621Y006257D02*
X006079Y006257D01*
X006036Y006300D02*
X005664Y006300D01*
X005400Y006036D01*
X005400Y005664D01*
X005664Y005400D01*
X006036Y005400D01*
X006300Y005664D01*
X006300Y006036D01*
X006036Y006300D01*
X006178Y006159D02*
X006522Y006159D01*
X006424Y006060D02*
X006276Y006060D01*
X006300Y005962D02*
X006400Y005962D01*
X006400Y005863D02*
X006300Y005863D01*
X006300Y005765D02*
X006400Y005765D01*
X006400Y005666D02*
X006300Y005666D01*
X006204Y005568D02*
X006496Y005568D01*
X006595Y005469D02*
X006105Y005469D01*
X005595Y005469D02*
X005105Y005469D01*
X005036Y005400D02*
X005300Y005664D01*
X005300Y006036D01*
X005036Y006300D01*
X004664Y006300D01*
X004400Y006036D01*
X004400Y005664D01*
X004664Y005400D01*
X005036Y005400D01*
X005204Y005568D02*
X005496Y005568D01*
X005400Y005666D02*
X005300Y005666D01*
X005300Y005765D02*
X005400Y005765D01*
X005400Y005863D02*
X005300Y005863D01*
X005300Y005962D02*
X005400Y005962D01*
X005424Y006060D02*
X005276Y006060D01*
X005178Y006159D02*
X005522Y006159D01*
X005621Y006257D02*
X005079Y006257D01*
X004621Y006257D02*
X004079Y006257D01*
X004036Y006300D02*
X003664Y006300D01*
X003400Y006036D01*
X003400Y005664D01*
X003664Y005400D01*
X004036Y005400D01*
X004300Y005664D01*
X004300Y006036D01*
X004036Y006300D01*
X004178Y006159D02*
X004522Y006159D01*
X004424Y006060D02*
X004276Y006060D01*
X004300Y005962D02*
X004400Y005962D01*
X004400Y005863D02*
X004300Y005863D01*
X004300Y005765D02*
X004400Y005765D01*
X004400Y005666D02*
X004300Y005666D01*
X004204Y005568D02*
X004496Y005568D01*
X004595Y005469D02*
X004105Y005469D01*
X003595Y005469D02*
X003105Y005469D01*
X003036Y005400D02*
X003300Y005664D01*
X003300Y006036D01*
X003036Y006300D01*
X002664Y006300D01*
X002400Y006036D01*
X002400Y005664D01*
X002664Y005400D01*
X003036Y005400D01*
X003204Y005568D02*
X003496Y005568D01*
X003400Y005666D02*
X003300Y005666D01*
X003300Y005765D02*
X003400Y005765D01*
X003400Y005863D02*
X003300Y005863D01*
X003300Y005962D02*
X003400Y005962D01*
X003424Y006060D02*
X003276Y006060D01*
X003178Y006159D02*
X003522Y006159D01*
X003621Y006257D02*
X003079Y006257D01*
X002621Y006257D02*
X002079Y006257D01*
X002178Y006159D02*
X002522Y006159D01*
X002424Y006060D02*
X002276Y006060D01*
X002300Y005962D02*
X002400Y005962D01*
X002400Y005863D02*
X002300Y005863D01*
X002300Y005765D02*
X002400Y005765D01*
X002400Y005666D02*
X002300Y005666D01*
X002204Y005568D02*
X002496Y005568D01*
X002595Y005469D02*
X002105Y005469D01*
X001400Y005962D02*
X001300Y005962D01*
X001276Y006060D02*
X001424Y006060D01*
X001522Y006159D02*
X001178Y006159D01*
X001079Y006257D02*
X001621Y006257D01*
X000621Y006257D02*
X000569Y006257D01*
X000522Y006159D02*
X000471Y006159D01*
X000424Y006060D02*
X000372Y006060D01*
X000400Y005962D02*
X000300Y005962D01*
X000300Y001135D02*
X000499Y001135D01*
X000400Y001037D02*
X000300Y001037D01*
X000300Y000938D02*
X000400Y000938D01*
X000400Y000840D02*
X000300Y000840D01*
X000300Y000741D02*
X000400Y000741D01*
X000421Y000643D02*
X000370Y000643D01*
X000468Y000544D02*
X000520Y000544D01*
X000567Y000446D02*
X000618Y000446D01*
D12*
X002450Y003931D03*
X001655Y003975D03*
X000755Y004315D03*
X007750Y004450D03*
X007750Y003250D03*
X009155Y001450D03*
D13*
X007750Y003250D02*
X007750Y004450D01*
M02*
