G75*
%MOIN*%
%OFA0B0*%
%FSLAX24Y24*%
%IPPOS*%
%LPD*%
%AMOC8*
5,1,8,0,0,1.08239X$1,22.5*
%
%ADD10C,0.0030*%
%ADD11C,0.0040*%
%ADD12C,0.0060*%
%ADD13C,0.0110*%
%ADD14C,0.0100*%
%ADD15C,0.0050*%
D10*
X000494Y001563D02*
X000543Y001515D01*
X000688Y001515D01*
X000688Y001805D01*
X000543Y001805D01*
X000494Y001757D01*
X000494Y001563D01*
X000789Y001515D02*
X000789Y001805D01*
X000982Y001805D02*
X000789Y001515D01*
X000982Y001515D02*
X000982Y001805D01*
X001083Y001757D02*
X001132Y001805D01*
X001229Y001805D01*
X001277Y001757D01*
X001277Y001563D01*
X001229Y001515D01*
X001132Y001515D01*
X001083Y001563D01*
X001083Y001660D01*
X001180Y001660D01*
X001494Y001660D02*
X001688Y001660D01*
X001543Y001805D01*
X001543Y001515D01*
X001789Y001515D02*
X001789Y001708D01*
X001886Y001805D01*
X001982Y001708D01*
X001982Y001515D01*
X002083Y001660D02*
X002132Y001612D01*
X002277Y001612D01*
X002277Y001515D02*
X002277Y001805D01*
X002132Y001805D01*
X002083Y001757D01*
X002083Y001660D01*
X001982Y001660D02*
X001789Y001660D01*
X002494Y001660D02*
X002494Y001563D01*
X002543Y001515D01*
X002639Y001515D01*
X002688Y001563D01*
X002789Y001515D02*
X002789Y001708D01*
X002886Y001805D01*
X002982Y001708D01*
X002982Y001515D01*
X003083Y001660D02*
X003132Y001612D01*
X003277Y001612D01*
X003277Y001515D02*
X003277Y001805D01*
X003132Y001805D01*
X003083Y001757D01*
X003083Y001660D01*
X002982Y001660D02*
X002789Y001660D01*
X002688Y001660D02*
X002591Y001708D01*
X002543Y001708D01*
X002494Y001660D01*
X002494Y001805D02*
X002688Y001805D01*
X002688Y001660D01*
X002514Y002018D02*
X002465Y002018D01*
X002417Y002067D01*
X002417Y002308D01*
X002562Y002308D01*
X002610Y002260D01*
X002610Y002163D01*
X002562Y002115D01*
X002417Y002115D01*
X002316Y002115D02*
X002316Y002405D01*
X002267Y002308D02*
X002171Y002308D01*
X002122Y002260D01*
X002122Y002115D01*
X001973Y002163D02*
X001924Y002115D01*
X001973Y002163D02*
X001973Y002357D01*
X002021Y002308D02*
X001924Y002308D01*
X001825Y002260D02*
X001776Y002308D01*
X001631Y002308D01*
X001680Y002212D02*
X001776Y002212D01*
X001825Y002260D01*
X001825Y002115D02*
X001680Y002115D01*
X001631Y002163D01*
X001680Y002212D01*
X001530Y002163D02*
X001482Y002163D01*
X001482Y002115D01*
X001530Y002115D01*
X001530Y002163D01*
X001383Y002163D02*
X001334Y002115D01*
X001189Y002115D01*
X001088Y002163D02*
X001040Y002115D01*
X000943Y002115D01*
X000895Y002163D01*
X000895Y002260D01*
X000943Y002308D01*
X001040Y002308D01*
X001088Y002260D01*
X001088Y002163D01*
X001189Y002308D02*
X001334Y002308D01*
X001383Y002260D01*
X001383Y002163D01*
X000793Y002115D02*
X000793Y002308D01*
X000745Y002308D01*
X000697Y002260D01*
X000648Y002308D01*
X000600Y002260D01*
X000600Y002115D01*
X000697Y002115D02*
X000697Y002260D01*
X002267Y002308D02*
X002316Y002260D01*
X002712Y002308D02*
X002712Y002115D01*
X002857Y002115D01*
X002905Y002163D01*
X002905Y002308D01*
X003006Y002260D02*
X003055Y002308D01*
X003151Y002308D01*
X003200Y002260D01*
X003200Y002163D01*
X003151Y002115D01*
X003055Y002115D01*
X003006Y002163D01*
X003006Y002260D01*
X003301Y002260D02*
X003301Y002115D01*
X003494Y002115D02*
X003494Y002405D01*
X003446Y002308D02*
X003349Y002308D01*
X003301Y002260D01*
X003446Y002308D02*
X003494Y002260D01*
X003594Y002308D02*
X003691Y002308D01*
X003642Y002357D02*
X003642Y002163D01*
X003594Y002115D01*
X003792Y002260D02*
X003985Y002260D01*
X004085Y002308D02*
X004182Y002308D01*
X004134Y002357D02*
X004134Y002163D01*
X004085Y002115D01*
X004283Y002163D02*
X004283Y002260D01*
X004331Y002308D01*
X004428Y002308D01*
X004477Y002260D01*
X004477Y002163D01*
X004428Y002115D01*
X004331Y002115D01*
X004283Y002163D01*
X004578Y002163D02*
X004578Y002260D01*
X004626Y002308D01*
X004771Y002308D01*
X004771Y002405D02*
X004771Y002115D01*
X004626Y002115D01*
X004578Y002163D01*
X004494Y001805D02*
X004494Y001757D01*
X004688Y001563D01*
X004688Y001515D01*
X004789Y001515D02*
X004789Y001708D01*
X004886Y001805D01*
X004982Y001708D01*
X004982Y001515D01*
X004982Y001660D02*
X004789Y001660D01*
X004688Y001805D02*
X004494Y001805D01*
X004277Y001805D02*
X004132Y001805D01*
X004083Y001757D01*
X004083Y001660D01*
X004132Y001612D01*
X004277Y001612D01*
X004277Y001515D02*
X004277Y001805D01*
X003982Y001708D02*
X003886Y001805D01*
X003789Y001708D01*
X003789Y001515D01*
X003688Y001563D02*
X003639Y001515D01*
X003543Y001515D01*
X003494Y001563D01*
X003494Y001612D01*
X003543Y001660D01*
X003688Y001660D01*
X003688Y001563D01*
X003688Y001660D02*
X003591Y001757D01*
X003494Y001805D01*
X003789Y001660D02*
X003982Y001660D01*
X003982Y001708D02*
X003982Y001515D01*
X005083Y001660D02*
X005132Y001612D01*
X005277Y001612D01*
X005277Y001515D02*
X005277Y001805D01*
X005132Y001805D01*
X005083Y001757D01*
X005083Y001660D01*
X005494Y001612D02*
X005494Y001563D01*
X005543Y001515D01*
X005639Y001515D01*
X005688Y001563D01*
X005789Y001563D02*
X005789Y001612D01*
X005837Y001660D01*
X005982Y001660D01*
X006083Y001660D02*
X006083Y001757D01*
X006132Y001805D01*
X006277Y001805D01*
X006277Y001515D01*
X006277Y001612D02*
X006132Y001612D01*
X006083Y001660D01*
X005982Y001515D02*
X005837Y001515D01*
X005789Y001563D01*
X005982Y001515D02*
X005982Y001805D01*
X005837Y001805D01*
X005789Y001757D01*
X005789Y001708D01*
X005837Y001660D01*
X005688Y001757D02*
X005639Y001805D01*
X005543Y001805D01*
X005494Y001757D01*
X005494Y001708D01*
X005543Y001660D01*
X005494Y001612D01*
X005543Y001660D02*
X005591Y001660D01*
X005562Y002015D02*
X005562Y002208D01*
X005465Y002305D01*
X005368Y002208D01*
X005368Y002015D01*
X005368Y002160D02*
X005562Y002160D01*
X005663Y002063D02*
X005663Y002257D01*
X005711Y002305D01*
X005856Y002305D01*
X005856Y002015D01*
X005711Y002015D01*
X005663Y002063D01*
X005958Y002063D02*
X006006Y002015D01*
X006103Y002015D01*
X006151Y002063D01*
X006103Y002160D02*
X006006Y002160D01*
X005958Y002112D01*
X005958Y002063D01*
X006103Y002160D02*
X006151Y002208D01*
X006151Y002257D01*
X006103Y002305D01*
X006006Y002305D01*
X005958Y002257D01*
X006006Y002495D02*
X006103Y002495D01*
X006151Y002543D01*
X006103Y002640D02*
X006006Y002640D01*
X005958Y002592D01*
X005958Y002543D01*
X006006Y002495D01*
X005856Y002543D02*
X005808Y002495D01*
X005711Y002495D01*
X005663Y002543D01*
X005562Y002495D02*
X005368Y002495D01*
X005562Y002495D02*
X005562Y002785D01*
X005663Y002737D02*
X005711Y002785D01*
X005808Y002785D01*
X005856Y002737D01*
X005856Y002543D01*
X006103Y002640D02*
X006151Y002688D01*
X006151Y002737D01*
X006103Y002785D01*
X006006Y002785D01*
X005958Y002737D01*
X006006Y002975D02*
X005958Y003023D01*
X005958Y003265D01*
X005856Y003168D02*
X005760Y003265D01*
X005663Y003168D01*
X005663Y002975D01*
X005562Y002975D02*
X005562Y003265D01*
X005417Y003265D01*
X005368Y003217D01*
X005368Y003120D01*
X005417Y003072D01*
X005562Y003072D01*
X005465Y003072D02*
X005368Y002975D01*
X005170Y002975D02*
X005170Y003265D01*
X005074Y003265D02*
X005267Y003265D01*
X005267Y003455D02*
X005267Y003745D01*
X005074Y003455D01*
X005074Y003745D01*
X004972Y003697D02*
X004972Y003503D01*
X004924Y003455D01*
X004827Y003455D01*
X004779Y003503D01*
X004779Y003697D02*
X004827Y003745D01*
X004924Y003745D01*
X004972Y003697D01*
X005368Y003697D02*
X005368Y003745D01*
X005368Y003697D02*
X005465Y003600D01*
X005465Y003455D01*
X005663Y003503D02*
X005711Y003455D01*
X005808Y003455D01*
X005856Y003503D01*
X005808Y003600D02*
X005711Y003600D01*
X005663Y003552D01*
X005663Y003503D01*
X005562Y003697D02*
X005465Y003600D01*
X005562Y003697D02*
X005562Y003745D01*
X005663Y003697D02*
X005711Y003745D01*
X005808Y003745D01*
X005856Y003697D01*
X005856Y003648D01*
X005808Y003600D01*
X005958Y003600D02*
X006151Y003600D01*
X006151Y003648D02*
X006054Y003745D01*
X005958Y003648D01*
X005958Y003455D01*
X006151Y003455D02*
X006151Y003648D01*
X006151Y003935D02*
X006151Y004225D01*
X006006Y004225D01*
X005958Y004177D01*
X005958Y004080D01*
X006006Y004032D01*
X006151Y004032D01*
X005856Y003935D02*
X005856Y004225D01*
X005663Y004225D02*
X005663Y003935D01*
X005760Y004032D01*
X005856Y003935D01*
X005562Y003935D02*
X005562Y004225D01*
X005465Y004128D01*
X005368Y004225D01*
X005368Y003935D01*
X006199Y004467D02*
X006199Y004708D01*
X006344Y004708D01*
X006393Y004660D01*
X006393Y004563D01*
X006344Y004515D01*
X006199Y004515D01*
X006199Y004467D02*
X006247Y004418D01*
X006296Y004418D01*
X006492Y004515D02*
X006540Y004515D01*
X006540Y004563D01*
X006492Y004563D01*
X006492Y004515D01*
X006641Y004563D02*
X006689Y004612D01*
X006786Y004612D01*
X006835Y004660D01*
X006786Y004708D01*
X006641Y004708D01*
X006641Y004563D02*
X006689Y004515D01*
X006835Y004515D01*
X006934Y004515D02*
X007031Y004515D01*
X006983Y004515D02*
X006983Y004708D01*
X007031Y004708D01*
X006983Y004805D02*
X006983Y004854D01*
X006863Y004995D02*
X006718Y004995D01*
X006718Y005285D01*
X006863Y005285D01*
X006911Y005237D01*
X006911Y005188D01*
X006863Y005140D01*
X006718Y005140D01*
X006617Y005140D02*
X006617Y005043D01*
X006568Y004995D01*
X006423Y004995D01*
X006423Y005285D01*
X006423Y005188D02*
X006568Y005188D01*
X006617Y005140D01*
X006863Y005140D02*
X006911Y005092D01*
X006911Y005043D01*
X006863Y004995D01*
X007012Y005092D02*
X007109Y004995D01*
X007109Y005285D01*
X007012Y005285D02*
X007206Y005285D01*
X006206Y005237D02*
X006206Y005043D01*
X006012Y005237D01*
X006061Y005285D01*
X006157Y005285D01*
X006206Y005237D01*
X006012Y005237D02*
X006012Y005043D01*
X006061Y004995D01*
X006157Y004995D01*
X006206Y005043D01*
X005911Y005043D02*
X005911Y005092D01*
X005863Y005140D01*
X005718Y005140D01*
X005617Y005140D02*
X005617Y005043D01*
X005568Y004995D01*
X005423Y004995D01*
X005423Y005285D01*
X005423Y005188D02*
X005568Y005188D01*
X005617Y005140D01*
X005718Y005285D02*
X005718Y004995D01*
X005863Y004995D01*
X005911Y005043D01*
X005863Y005140D02*
X005911Y005188D01*
X005911Y005237D01*
X005863Y005285D01*
X005718Y005285D01*
X005206Y005237D02*
X005206Y005043D01*
X005012Y005237D01*
X005061Y005285D01*
X005157Y005285D01*
X005206Y005237D01*
X005012Y005237D02*
X005012Y005043D01*
X005061Y004995D01*
X005157Y004995D01*
X005206Y005043D01*
X004911Y005092D02*
X004911Y005285D01*
X004911Y005140D02*
X004718Y005140D01*
X004718Y005092D02*
X004814Y004995D01*
X004911Y005092D01*
X004718Y005092D02*
X004718Y005285D01*
X004617Y005140D02*
X004568Y005188D01*
X004423Y005188D01*
X004423Y005285D02*
X004423Y004995D01*
X004568Y004995D01*
X004617Y005043D01*
X004617Y005140D01*
X004206Y005285D02*
X004012Y005285D01*
X004109Y005285D02*
X004109Y004995D01*
X004012Y005092D01*
X003911Y005092D02*
X003911Y005285D01*
X003911Y005140D02*
X003718Y005140D01*
X003718Y005092D02*
X003814Y004995D01*
X003911Y005092D01*
X003718Y005092D02*
X003718Y005285D01*
X003617Y005140D02*
X003568Y005188D01*
X003423Y005188D01*
X003423Y005285D02*
X003423Y004995D01*
X003568Y004995D01*
X003617Y005043D01*
X003617Y005140D01*
X003206Y005092D02*
X003206Y005043D01*
X003157Y004995D01*
X003061Y004995D01*
X003012Y005043D01*
X002911Y005092D02*
X002911Y005285D01*
X003012Y005285D02*
X003206Y005092D01*
X003206Y005285D02*
X003012Y005285D01*
X002911Y005140D02*
X002718Y005140D01*
X002718Y005092D02*
X002814Y004995D01*
X002911Y005092D01*
X002718Y005092D02*
X002718Y005285D01*
X002617Y005140D02*
X002568Y005188D01*
X002423Y005188D01*
X002423Y005285D02*
X002423Y004995D01*
X002568Y004995D01*
X002617Y005043D01*
X002617Y005140D01*
X002206Y005188D02*
X002157Y005140D01*
X002109Y005140D01*
X002157Y005140D02*
X002206Y005092D01*
X002206Y005043D01*
X002157Y004995D01*
X002061Y004995D01*
X002012Y005043D01*
X001911Y005092D02*
X001911Y005285D01*
X002012Y005237D02*
X002061Y005285D01*
X002157Y005285D01*
X002206Y005237D01*
X002206Y005188D01*
X001911Y005140D02*
X001718Y005140D01*
X001718Y005092D02*
X001814Y004995D01*
X001911Y005092D01*
X001718Y005092D02*
X001718Y005285D01*
X001617Y005140D02*
X001568Y005188D01*
X001423Y005188D01*
X001423Y005285D02*
X001423Y004995D01*
X001568Y004995D01*
X001617Y005043D01*
X001617Y005140D01*
X001206Y005237D02*
X001206Y005043D01*
X001157Y004995D01*
X001012Y004995D01*
X001012Y005285D01*
X001157Y005285D01*
X001206Y005237D01*
X000911Y005237D02*
X000911Y005043D01*
X000863Y004995D01*
X000718Y004995D01*
X000718Y005285D01*
X000863Y005285D01*
X000911Y005237D01*
X000617Y005188D02*
X000617Y004995D01*
X000423Y004995D02*
X000423Y005188D01*
X000520Y005285D01*
X000617Y005188D01*
X003939Y004854D02*
X003939Y004805D01*
X003939Y004708D02*
X003939Y004467D01*
X003987Y004418D01*
X004035Y004418D01*
X004137Y004515D02*
X004137Y004805D01*
X004137Y004660D02*
X004330Y004660D01*
X004431Y004708D02*
X004431Y004563D01*
X004480Y004515D01*
X004528Y004563D01*
X004576Y004515D01*
X004625Y004563D01*
X004625Y004708D01*
X004726Y004708D02*
X004726Y004515D01*
X004871Y004515D01*
X004919Y004563D01*
X004919Y004708D01*
X005021Y004708D02*
X005166Y004708D01*
X005214Y004660D01*
X005166Y004612D01*
X005069Y004612D01*
X005021Y004563D01*
X005069Y004515D01*
X005214Y004515D01*
X005315Y004563D02*
X005364Y004612D01*
X005460Y004612D01*
X005509Y004660D01*
X005460Y004708D01*
X005315Y004708D01*
X005315Y004563D02*
X005364Y004515D01*
X005509Y004515D01*
X005803Y004515D02*
X005610Y004805D01*
X005904Y004805D02*
X005904Y004515D01*
X006050Y004515D01*
X006098Y004563D01*
X006098Y004660D01*
X006050Y004708D01*
X005904Y004708D01*
X006842Y004225D02*
X006890Y004177D01*
X006987Y004274D01*
X007035Y004225D01*
X006987Y003745D02*
X006890Y003745D01*
X006842Y003697D01*
X006842Y003600D01*
X006890Y003552D01*
X006890Y003648D01*
X006987Y003648D01*
X006987Y003552D01*
X006890Y003552D01*
X006842Y003503D02*
X006890Y003455D01*
X006987Y003455D01*
X007035Y003503D01*
X007035Y003697D01*
X006987Y003745D01*
X006842Y003265D02*
X007035Y003120D01*
X006842Y002975D01*
X006740Y002975D02*
X006547Y003120D01*
X006740Y003265D01*
X006151Y003265D02*
X006151Y003023D01*
X006103Y002975D01*
X006006Y002975D01*
X005856Y002975D02*
X005856Y003168D01*
X005856Y003120D02*
X005663Y003120D01*
X006842Y002737D02*
X006890Y002785D01*
X006987Y002785D01*
X007035Y002737D01*
X007035Y002543D01*
X006987Y002495D01*
X006890Y002495D01*
X006842Y002543D01*
X006890Y002305D02*
X007035Y002305D01*
X007035Y002015D01*
X006890Y002015D01*
X006842Y002063D01*
X006842Y002257D01*
X006890Y002305D01*
X006837Y001805D02*
X006789Y001757D01*
X006789Y001708D01*
X006837Y001660D01*
X006982Y001660D01*
X007083Y001660D02*
X007132Y001612D01*
X007277Y001612D01*
X007277Y001515D02*
X007277Y001805D01*
X007132Y001805D01*
X007083Y001757D01*
X007083Y001660D01*
X006982Y001515D02*
X006837Y001515D01*
X006789Y001563D01*
X006789Y001612D01*
X006837Y001660D01*
X006837Y001805D02*
X006982Y001805D01*
X006982Y001515D01*
X006688Y001515D02*
X006494Y001708D01*
X006494Y001757D01*
X006543Y001805D01*
X006639Y001805D01*
X006688Y001757D01*
X006688Y001515D02*
X006494Y001515D01*
X004330Y004515D02*
X004330Y004805D01*
D11*
X002998Y002880D02*
X002998Y002520D01*
X002818Y002520D01*
X002758Y002580D01*
X002758Y002700D01*
X002818Y002760D01*
X002998Y002760D01*
X003126Y002700D02*
X003367Y002700D01*
X003495Y002760D02*
X003675Y002760D01*
X003735Y002700D01*
X003735Y002580D01*
X003675Y002520D01*
X003495Y002520D01*
X003863Y002520D02*
X004043Y002520D01*
X004103Y002580D01*
X004103Y002700D01*
X004043Y002760D01*
X003863Y002760D01*
X002630Y002760D02*
X002630Y002580D01*
X002570Y002520D01*
X002390Y002520D01*
X002390Y002460D02*
X002450Y002400D01*
X002510Y002400D01*
X002390Y002460D02*
X002390Y002760D01*
X002262Y002700D02*
X002021Y002700D01*
X001893Y002700D02*
X001833Y002640D01*
X001713Y002640D01*
X001653Y002580D01*
X001713Y002520D01*
X001893Y002520D01*
X001893Y002700D02*
X001833Y002760D01*
X001653Y002760D01*
X001465Y002760D02*
X001345Y002760D01*
X001285Y002700D01*
X001285Y002520D01*
X001465Y002520D01*
X001525Y002580D01*
X001465Y002640D01*
X001285Y002640D01*
D12*
X000350Y000650D02*
X000600Y000400D01*
X001100Y000400D01*
X001350Y000650D01*
X001600Y000400D01*
X002100Y000400D01*
X002350Y000650D01*
X002350Y001150D01*
X002100Y001400D01*
X001600Y001400D01*
X001350Y001150D01*
X001100Y001400D01*
X000600Y001400D01*
X000350Y001150D01*
X000350Y000650D01*
X001350Y000650D02*
X001350Y001150D01*
X002350Y001150D02*
X002600Y001400D01*
X003100Y001400D01*
X003350Y001150D01*
X003600Y001400D01*
X004100Y001400D01*
X004350Y001150D01*
X004600Y001400D01*
X005100Y001400D01*
X005350Y001150D01*
X005350Y000650D01*
X005100Y000400D01*
X004600Y000400D01*
X004350Y000650D01*
X004350Y001150D01*
X004350Y000650D02*
X004100Y000400D01*
X003600Y000400D01*
X003350Y000650D01*
X003350Y001150D01*
X003350Y000650D02*
X003100Y000400D01*
X002600Y000400D01*
X002350Y000650D01*
X005350Y000650D02*
X005600Y000400D01*
X006100Y000400D01*
X006350Y000650D01*
X006600Y000400D01*
X007100Y000400D01*
X007350Y000650D01*
X007350Y001150D01*
X007100Y001400D01*
X006600Y001400D01*
X006350Y001150D01*
X006100Y001400D01*
X005600Y001400D01*
X005350Y001150D01*
X006350Y001150D02*
X006350Y000650D01*
X006100Y005400D02*
X005600Y005400D01*
X005350Y005650D01*
X005350Y006150D01*
X005600Y006400D01*
X006100Y006400D01*
X006350Y006150D01*
X006350Y005650D01*
X006100Y005400D01*
X006350Y005650D02*
X006600Y005400D01*
X007100Y005400D01*
X007350Y005650D01*
X007350Y006150D01*
X007100Y006400D01*
X006600Y006400D01*
X006350Y006150D01*
X005350Y006150D02*
X005100Y006400D01*
X004600Y006400D01*
X004350Y006150D01*
X004100Y006400D01*
X003600Y006400D01*
X003350Y006150D01*
X003100Y006400D01*
X002600Y006400D01*
X002350Y006150D01*
X002350Y005650D01*
X002600Y005400D01*
X003100Y005400D01*
X003350Y005650D01*
X003600Y005400D01*
X004100Y005400D01*
X004350Y005650D01*
X004600Y005400D01*
X005100Y005400D01*
X005350Y005650D01*
X004350Y005650D02*
X004350Y006150D01*
X003350Y006150D02*
X003350Y005650D01*
X002350Y005650D02*
X002100Y005400D01*
X001600Y005400D01*
X001350Y005650D01*
X001100Y005400D01*
X000600Y005400D01*
X000350Y005650D01*
X000350Y006150D01*
X000600Y006400D01*
X001100Y006400D01*
X001350Y006150D01*
X001350Y005650D01*
X001350Y006150D02*
X001600Y006400D01*
X002100Y006400D01*
X002350Y006150D01*
D13*
X002620Y003600D02*
X002609Y003625D01*
X002595Y003648D01*
X002577Y003669D01*
X002557Y003687D01*
X002535Y003703D01*
X002511Y003715D01*
X002485Y003723D01*
X002458Y003728D01*
X002431Y003729D01*
X002404Y003726D01*
X002378Y003720D01*
X002352Y003710D01*
X002329Y003696D01*
X002307Y003679D01*
X002289Y003660D01*
X002273Y003638D01*
X002260Y003614D01*
X002251Y003589D01*
X002245Y003562D01*
X002243Y003535D01*
X002245Y003508D01*
X002251Y003481D01*
X002260Y003456D01*
X002273Y003432D01*
X002289Y003410D01*
X002307Y003391D01*
X002329Y003374D01*
X002352Y003360D01*
X002378Y003350D01*
X002404Y003344D01*
X002431Y003341D01*
X002458Y003342D01*
X002485Y003347D01*
X002511Y003355D01*
X002535Y003367D01*
X002557Y003383D01*
X002577Y003401D01*
X002595Y003422D01*
X002609Y003445D01*
X002620Y003470D01*
X002635Y003513D02*
X002637Y003536D01*
X002643Y003558D01*
X002652Y003580D01*
X002665Y003599D01*
X002680Y003616D01*
X002698Y003630D01*
X002719Y003641D01*
X002741Y003649D01*
X002763Y003653D01*
X002787Y003653D01*
X002809Y003649D01*
X002831Y003641D01*
X002852Y003630D01*
X002870Y003616D01*
X002885Y003599D01*
X002898Y003580D01*
X002907Y003558D01*
X002913Y003536D01*
X002915Y003513D01*
X002913Y003490D01*
X002907Y003468D01*
X002898Y003446D01*
X002885Y003427D01*
X002870Y003410D01*
X002852Y003396D01*
X002831Y003385D01*
X002809Y003377D01*
X002787Y003373D01*
X002763Y003373D01*
X002741Y003377D01*
X002719Y003385D01*
X002698Y003396D01*
X002680Y003410D01*
X002665Y003427D01*
X002652Y003446D01*
X002643Y003468D01*
X002637Y003490D01*
X002635Y003513D01*
X002630Y003470D02*
X002641Y003445D01*
X002655Y003422D01*
X002673Y003401D01*
X002693Y003383D01*
X002715Y003367D01*
X002739Y003355D01*
X002765Y003347D01*
X002792Y003342D01*
X002819Y003341D01*
X002846Y003344D01*
X002872Y003350D01*
X002898Y003360D01*
X002921Y003374D01*
X002943Y003391D01*
X002961Y003410D01*
X002977Y003432D01*
X002990Y003456D01*
X002999Y003481D01*
X003005Y003508D01*
X003007Y003535D01*
X003005Y003562D01*
X002999Y003589D01*
X002990Y003614D01*
X002977Y003638D01*
X002961Y003660D01*
X002943Y003679D01*
X002921Y003696D01*
X002898Y003710D01*
X002872Y003720D01*
X002846Y003726D01*
X002819Y003729D01*
X002792Y003728D01*
X002765Y003723D01*
X002739Y003715D01*
X002715Y003703D01*
X002693Y003687D01*
X002673Y003669D01*
X002655Y003648D01*
X002641Y003625D01*
X002630Y003600D01*
X002345Y003513D02*
X002347Y003536D01*
X002353Y003558D01*
X002362Y003580D01*
X002375Y003599D01*
X002390Y003616D01*
X002408Y003630D01*
X002429Y003641D01*
X002451Y003649D01*
X002473Y003653D01*
X002497Y003653D01*
X002519Y003649D01*
X002541Y003641D01*
X002562Y003630D01*
X002580Y003616D01*
X002595Y003599D01*
X002608Y003580D01*
X002617Y003558D01*
X002623Y003536D01*
X002625Y003513D01*
X002623Y003490D01*
X002617Y003468D01*
X002608Y003446D01*
X002595Y003427D01*
X002580Y003410D01*
X002562Y003396D01*
X002541Y003385D01*
X002519Y003377D01*
X002497Y003373D01*
X002473Y003373D01*
X002451Y003377D01*
X002429Y003385D01*
X002408Y003396D01*
X002390Y003410D01*
X002375Y003427D01*
X002362Y003446D01*
X002353Y003468D01*
X002347Y003490D01*
X002345Y003513D01*
D14*
X002039Y003549D02*
X001831Y003549D01*
X001823Y003577D02*
X001529Y003628D01*
X001529Y003942D01*
X001823Y003973D01*
X001858Y004088D01*
X001911Y004195D01*
X001735Y004440D01*
X001960Y004655D01*
X002195Y004489D01*
X002302Y004547D01*
X002417Y004587D01*
X002458Y004871D01*
X002772Y004871D01*
X002813Y004567D01*
X002923Y004532D01*
X003025Y004479D01*
X003290Y004655D01*
X003495Y004450D01*
X003319Y004205D01*
X003377Y004098D01*
X003417Y003983D01*
X003711Y003952D01*
X003711Y003628D01*
X003427Y003587D01*
X003403Y003506D01*
X003370Y003428D01*
X003329Y003355D01*
X003505Y003130D01*
X003280Y002905D01*
X003191Y002976D01*
X003191Y003750D01*
X003188Y003842D01*
X003170Y003932D01*
X003137Y004018D01*
X003091Y004097D01*
X003032Y004168D01*
X002963Y004228D01*
X002885Y004276D01*
X002800Y004310D01*
X002710Y004330D01*
X002747Y004357D01*
X002776Y004392D01*
X002797Y004432D01*
X002808Y004476D01*
X002809Y004521D01*
X002800Y004566D01*
X002781Y004607D01*
X002753Y004643D01*
X002718Y004672D01*
X002677Y004692D01*
X002633Y004702D01*
X002587Y004702D01*
X002543Y004692D01*
X002502Y004672D01*
X002467Y004643D01*
X002439Y004607D01*
X002420Y004566D01*
X002411Y004521D01*
X002412Y004476D01*
X002423Y004432D01*
X002444Y004392D01*
X002473Y004357D01*
X002510Y004330D01*
X002510Y004320D01*
X002422Y004300D01*
X002339Y004266D01*
X002262Y004219D01*
X002194Y004160D01*
X002137Y004091D01*
X002091Y004013D01*
X002060Y003928D01*
X002042Y003840D01*
X002039Y003750D01*
X002039Y002956D01*
X001960Y002905D01*
X001745Y003120D01*
X001911Y003345D01*
X001857Y003457D01*
X001823Y003577D01*
X002039Y003648D02*
X001529Y003648D01*
X001529Y003746D02*
X002039Y003746D01*
X002043Y003845D02*
X001529Y003845D01*
X001536Y003943D02*
X002065Y003943D01*
X002108Y004042D02*
X001843Y004042D01*
X001884Y004140D02*
X002177Y004140D01*
X002293Y004239D02*
X001880Y004239D01*
X001809Y004337D02*
X002501Y004337D01*
X002719Y004337D02*
X003414Y004337D01*
X003343Y004239D02*
X002945Y004239D01*
X003055Y004140D02*
X003355Y004140D01*
X003397Y004042D02*
X003123Y004042D01*
X003165Y003943D02*
X003711Y003943D01*
X003711Y003845D02*
X003187Y003845D01*
X003191Y003746D02*
X003711Y003746D01*
X003711Y003648D02*
X003191Y003648D01*
X003191Y003549D02*
X003416Y003549D01*
X003380Y003451D02*
X003191Y003451D01*
X003191Y003352D02*
X003331Y003352D01*
X003408Y003254D02*
X003191Y003254D01*
X003191Y003155D02*
X003486Y003155D01*
X003431Y003057D02*
X003191Y003057D01*
X003213Y002958D02*
X003333Y002958D01*
X002039Y002958D02*
X001907Y002958D01*
X001809Y003057D02*
X002039Y003057D01*
X002039Y003155D02*
X001771Y003155D01*
X001844Y003254D02*
X002039Y003254D01*
X002039Y003352D02*
X001908Y003352D01*
X001860Y003451D02*
X002039Y003451D01*
X001738Y004436D02*
X002422Y004436D01*
X002413Y004534D02*
X002277Y004534D01*
X002131Y004534D02*
X001834Y004534D01*
X001937Y004633D02*
X001992Y004633D01*
X002423Y004633D02*
X002459Y004633D01*
X002437Y004731D02*
X002791Y004731D01*
X002805Y004633D02*
X002761Y004633D01*
X002807Y004534D02*
X002916Y004534D01*
X002798Y004436D02*
X003485Y004436D01*
X003411Y004534D02*
X003108Y004534D01*
X003256Y004633D02*
X003312Y004633D01*
X002778Y004830D02*
X002452Y004830D01*
D15*
X002460Y003190D02*
X002560Y003060D01*
X002780Y003060D01*
X002860Y003190D01*
X002460Y003190D01*
X002484Y003159D02*
X002841Y003159D01*
X002811Y003110D02*
X002522Y003110D01*
X002559Y003062D02*
X002781Y003062D01*
M02*
